<svg width="9" height="109" viewBox="0 0 9 109" fill="none" xmlns="http://www.w3.org/2000/svg">
<path fill-rule="evenodd" clip-rule="evenodd" d="M4.5 9C6.98528 9 9 6.98528 9 4.5C9 2.01472 6.98528 0 4.5 0C2.01472 0 0 2.01472 0 4.5C0 6.98528 2.01472 9 4.5 9Z" fill="#19191B"/>
<path fill-rule="evenodd" clip-rule="evenodd" d="M4.5 59C6.98528 59 9 56.9853 9 54.5C9 52.0147 6.98528 50 4.5 50C2.01472 50 0 52.0147 0 54.5C0 56.9853 2.01472 59 4.5 59Z" fill="#19191B"/>
<path fill-rule="evenodd" clip-rule="evenodd" d="M4.5 109C6.98528 109 9 106.985 9 104.5C9 102.015 6.98528 100 4.5 100C2.01472 100 0 102.015 0 104.5C0 106.985 2.01472 109 4.5 109Z" fill="#19191B"/>
</svg>
