<svg width="1600" height="1523" viewBox="0 0 1600 1523" fill="none" xmlns="http://www.w3.org/2000/svg">
<rect width="1600" height="1523" fill="#F7F7FB"/>
<g clip-path="url(#clip0_0_3095)">
<g clip-path="url(#clip1_0_3095)">
<g filter="url(#filter0_d_0_3095)">
<rect x="245" y="708" width="730" height="253" rx="10" fill="white"/>
</g>
<path fill-rule="evenodd" clip-rule="evenodd" d="M296 792C310.912 792 323 779.912 323 765C323 750.088 310.912 738 296 738C281.088 738 269 750.088 269 765C269 779.912 281.088 792 296 792Z" fill="#696871"/>
</g>
<g clip-path="url(#clip2_0_3095)">
<g filter="url(#filter1_d_0_3095)">
<rect x="245" y="992" width="730" height="163" rx="10" fill="white"/>
</g>
<path fill-rule="evenodd" clip-rule="evenodd" d="M296 1076C310.912 1076 323 1063.91 323 1049C323 1034.09 310.912 1022 296 1022C281.088 1022 269 1034.09 269 1049C269 1063.91 281.088 1076 296 1076Z" fill="#696871"/>
</g>
<g clip-path="url(#clip3_0_3095)">
<g filter="url(#filter2_d_0_3095)">
<rect x="245" y="1185" width="730" height="191" rx="10" fill="white"/>
</g>
<path fill-rule="evenodd" clip-rule="evenodd" d="M296 1269C310.912 1269 323 1256.91 323 1242C323 1227.09 310.912 1215 296 1215C281.088 1215 269 1227.09 269 1242C269 1256.91 281.088 1269 296 1269Z" fill="#696871"/>
</g>
</g>
<g clip-path="url(#clip4_0_3095)">
<g clip-path="url(#clip5_0_3095)">
<g filter="url(#filter3_d_0_3095)">
<rect x="245" y="327" width="730" height="171" rx="10" fill="white"/>
</g>
</g>
<g clip-path="url(#clip6_0_3095)">
<g filter="url(#filter4_d_0_3095)">
<rect x="245" y="171" width="730" height="60" rx="10" fill="white"/>
</g>
</g>
<g clip-path="url(#clip7_0_3095)">
<g filter="url(#filter5_d_0_3095)">
<rect x="245" y="249" width="730" height="60" rx="10" fill="white"/>
</g>
</g>
<g clip-path="url(#clip8_0_3095)">
<rect x="246" y="516" width="189" height="60" rx="10" fill="#F04037" stroke="#C31A12"/>
</g>
</g>
<defs>
<filter id="filter0_d_0_3095" x="241" y="706" width="738" height="261" filterUnits="userSpaceOnUse" color-interpolation-filters="sRGB">
<feFlood flood-opacity="0" result="BackgroundImageFix"/>
<feColorMatrix in="SourceAlpha" type="matrix" values="0 0 0 0 0 0 0 0 0 0 0 0 0 0 0 0 0 0 127 0" result="hardAlpha"/>
<feOffset dy="2"/>
<feGaussianBlur stdDeviation="2"/>
<feColorMatrix type="matrix" values="0 0 0 0 0.056796 0 0 0 0 0.337474 0 0 0 0 0.487697 0 0 0 0.165308 0"/>
<feBlend mode="normal" in2="BackgroundImageFix" result="effect1_dropShadow_0_3095"/>
<feBlend mode="normal" in="SourceGraphic" in2="effect1_dropShadow_0_3095" result="shape"/>
</filter>
<filter id="filter1_d_0_3095" x="241" y="990" width="738" height="171" filterUnits="userSpaceOnUse" color-interpolation-filters="sRGB">
<feFlood flood-opacity="0" result="BackgroundImageFix"/>
<feColorMatrix in="SourceAlpha" type="matrix" values="0 0 0 0 0 0 0 0 0 0 0 0 0 0 0 0 0 0 127 0" result="hardAlpha"/>
<feOffset dy="2"/>
<feGaussianBlur stdDeviation="2"/>
<feColorMatrix type="matrix" values="0 0 0 0 0.056796 0 0 0 0 0.337474 0 0 0 0 0.487697 0 0 0 0.165308 0"/>
<feBlend mode="normal" in2="BackgroundImageFix" result="effect1_dropShadow_0_3095"/>
<feBlend mode="normal" in="SourceGraphic" in2="effect1_dropShadow_0_3095" result="shape"/>
</filter>
<filter id="filter2_d_0_3095" x="241" y="1183" width="738" height="199" filterUnits="userSpaceOnUse" color-interpolation-filters="sRGB">
<feFlood flood-opacity="0" result="BackgroundImageFix"/>
<feColorMatrix in="SourceAlpha" type="matrix" values="0 0 0 0 0 0 0 0 0 0 0 0 0 0 0 0 0 0 127 0" result="hardAlpha"/>
<feOffset dy="2"/>
<feGaussianBlur stdDeviation="2"/>
<feColorMatrix type="matrix" values="0 0 0 0 0.056796 0 0 0 0 0.337474 0 0 0 0 0.487697 0 0 0 0.165308 0"/>
<feBlend mode="normal" in2="BackgroundImageFix" result="effect1_dropShadow_0_3095"/>
<feBlend mode="normal" in="SourceGraphic" in2="effect1_dropShadow_0_3095" result="shape"/>
</filter>
<filter id="filter3_d_0_3095" x="241" y="325" width="738" height="179" filterUnits="userSpaceOnUse" color-interpolation-filters="sRGB">
<feFlood flood-opacity="0" result="BackgroundImageFix"/>
<feColorMatrix in="SourceAlpha" type="matrix" values="0 0 0 0 0 0 0 0 0 0 0 0 0 0 0 0 0 0 127 0" result="hardAlpha"/>
<feOffset dy="2"/>
<feGaussianBlur stdDeviation="2"/>
<feColorMatrix type="matrix" values="0 0 0 0 0.056796 0 0 0 0 0.337474 0 0 0 0 0.487697 0 0 0 0.165308 0"/>
<feBlend mode="normal" in2="BackgroundImageFix" result="effect1_dropShadow_0_3095"/>
<feBlend mode="normal" in="SourceGraphic" in2="effect1_dropShadow_0_3095" result="shape"/>
</filter>
<filter id="filter4_d_0_3095" x="241" y="169" width="738" height="68" filterUnits="userSpaceOnUse" color-interpolation-filters="sRGB">
<feFlood flood-opacity="0" result="BackgroundImageFix"/>
<feColorMatrix in="SourceAlpha" type="matrix" values="0 0 0 0 0 0 0 0 0 0 0 0 0 0 0 0 0 0 127 0" result="hardAlpha"/>
<feOffset dy="2"/>
<feGaussianBlur stdDeviation="2"/>
<feColorMatrix type="matrix" values="0 0 0 0 0.056796 0 0 0 0 0.337474 0 0 0 0 0.487697 0 0 0 0.165308 0"/>
<feBlend mode="normal" in2="BackgroundImageFix" result="effect1_dropShadow_0_3095"/>
<feBlend mode="normal" in="SourceGraphic" in2="effect1_dropShadow_0_3095" result="shape"/>
</filter>
<filter id="filter5_d_0_3095" x="241" y="247" width="738" height="68" filterUnits="userSpaceOnUse" color-interpolation-filters="sRGB">
<feFlood flood-opacity="0" result="BackgroundImageFix"/>
<feColorMatrix in="SourceAlpha" type="matrix" values="0 0 0 0 0 0 0 0 0 0 0 0 0 0 0 0 0 0 127 0" result="hardAlpha"/>
<feOffset dy="2"/>
<feGaussianBlur stdDeviation="2"/>
<feColorMatrix type="matrix" values="0 0 0 0 0.056796 0 0 0 0 0.337474 0 0 0 0 0.487697 0 0 0 0.165308 0"/>
<feBlend mode="normal" in2="BackgroundImageFix" result="effect1_dropShadow_0_3095"/>
<feBlend mode="normal" in="SourceGraphic" in2="effect1_dropShadow_0_3095" result="shape"/>
</filter>
<clipPath id="clip0_0_3095">
<rect width="730" height="742" fill="white" transform="translate(245 634)"/>
</clipPath>
<clipPath id="clip1_0_3095">
<rect width="730" height="253" fill="white" transform="translate(245 708)"/>
</clipPath>
<clipPath id="clip2_0_3095">
<rect width="730" height="163" fill="white" transform="translate(245 992)"/>
</clipPath>
<clipPath id="clip3_0_3095">
<rect width="730" height="191" fill="white" transform="translate(245 1185)"/>
</clipPath>
<clipPath id="clip4_0_3095">
<rect width="730" height="471" fill="white" transform="translate(245 105)"/>
</clipPath>
<clipPath id="clip5_0_3095">
<rect width="730" height="171" fill="white" transform="translate(245 327)"/>
</clipPath>
<clipPath id="clip6_0_3095">
<rect width="730" height="60" fill="white" transform="translate(245 171)"/>
</clipPath>
<clipPath id="clip7_0_3095">
<rect width="730" height="60" fill="white" transform="translate(245 249)"/>
</clipPath>
<clipPath id="clip8_0_3095">
<rect width="190" height="60" fill="white" transform="translate(245 516)"/>
</clipPath>
</defs>
</svg>
