<svg width="27" height="27" viewBox="0 0 27 27" fill="none" xmlns="http://www.w3.org/2000/svg">
<path d="M13 4.17629C9.50109 3.44765 5.77176 4.99947 3.12347 8.42781C2.94281 8.66149 2.96241 8.99558 3.16909 9.20578L5.91671 12C7.75873 8.95148 10.1641 6.29463 13 4.17629Z" fill="#FEDC5A"/>
<path d="M16 22.0874L18.803 24.832C19.0127 25.0374 19.3461 25.0568 19.5793 24.8773C23.0215 22.2285 24.5712 18.4952 23.8101 15C21.6936 17.83 19.0423 20.236 16 22.0874H16Z" fill="#FEDC5A"/>
<path fill-rule="evenodd" clip-rule="evenodd" d="M26.3903 0.000912777C26.5553 -0.00848192 26.7161 0.0550071 26.8302 0.17459C26.946 0.290222 27.0074 0.449429 26.9993 0.612835C26.1002 16.4273 12.2946 21.9079 12.1545 21.9618C12.0884 21.9873 12.0181 22.0002 11.9472 22C11.7937 22 11.6465 21.9389 11.5379 21.8304L5.16977 15.4622C5.00887 15.3015 4.957 15.0614 5.03719 14.8486C5.09045 14.7085 10.5034 0.83051 26.3903 0.000912777ZM13.1051 11.5794C13.1051 12.8583 14.1419 13.8951 15.4208 13.8951C16.6997 13.8951 17.7365 12.8583 17.7365 11.5794C17.7365 10.3005 16.6997 9.26368 15.4208 9.26368C14.1419 9.26368 13.1051 10.3005 13.1051 11.5794Z" fill="#FEDC5A"/>
<path d="M6.91958 20.9451C5.47673 19.685 3.14071 19.685 1.69786 20.9451C0.370585 22.1062 0.0364582 25.9864 0.0013842 26.4254C-0.0100463 26.5743 0.0497012 26.7208 0.166361 26.8297C0.28302 26.9387 0.446121 27.0003 0.616718 27H0.657945C1.15944 26.9698 5.59292 26.6769 6.91958 25.5163C8.36014 24.2534 8.36014 22.208 6.91958 20.9451Z" fill="#FEDC5A"/>
</svg>
