<svg width="179" height="24" viewBox="0 0 179 24" fill="none" xmlns="http://www.w3.org/2000/svg">
<g opacity="0.39774">
<path d="M21 6.20361C20.2125 6.59536 19.3813 6.84021 18.5063 6.98711C19.3813 6.39948 20.0813 5.46907 20.3875 4.34278C19.5563 4.88144 18.6375 5.2732 17.6313 5.51804C16.8438 4.58763 15.7063 4 14.4812 4C12.1187 4 10.1938 6.15464 10.1938 8.79897C10.1938 9.19072 10.2375 9.53351 10.325 9.87629C6.78125 9.68041 3.5875 7.77062 1.44375 4.83247C1.09375 5.56701 0.875 6.35052 0.875 7.23196C0.875 8.89691 1.61875 10.366 2.8 11.2474C2.1 11.1985 1.44375 11.0026 0.83125 10.6598V10.7088C0.83125 13.0593 2.31875 15.018 4.2875 15.4588C3.9375 15.5567 3.54375 15.6057 3.15 15.6057C2.8875 15.6057 2.58125 15.5567 2.31875 15.5077C2.8875 17.4175 4.4625 18.8376 6.34375 18.8376C4.85625 20.1108 3.01875 20.8943 1.00625 20.8943C0.65625 20.8943 0.30625 20.8943 0 20.8454C1.925 22.2165 4.15625 23 6.60625 23C14.525 23 18.8563 15.6546 18.8563 9.28866C18.8563 9.09278 18.8563 8.84794 18.8563 8.65206C19.6875 8.01546 20.4312 7.18299 21 6.20361Z" fill="#F7F7FB"/>
</g>
<path d="M74 12.0724C73.999 5.64961 69.0009 0.35177 62.6264 0.0167007C56.2519 -0.318369 50.7324 4.42662 50.0663 10.8143C49.4002 17.202 53.8207 22.9964 60.1255 24V15.5625H57.0791V12.0724H60.1255V9.41232C60.1255 6.38627 61.9172 4.71477 64.6576 4.71477C65.5575 4.72733 66.4554 4.80602 67.344 4.95022V7.92193H65.8305C65.3081 7.85212 64.7825 8.02516 64.4021 8.39219C64.0218 8.75921 63.8279 9.28038 63.8754 9.8085V12.0724H67.2037L66.6713 15.5625H63.8754V24C69.7069 23.0718 74.0009 18.0131 74 12.0724Z" fill="#F7F7FB"/>
<g opacity="0.39774">
<path fill-rule="evenodd" clip-rule="evenodd" d="M109.759 1.069C110.985 1.01342 111.377 1 114.5 1C117.623 1 118.015 1.01342 119.241 1.069C121.111 1.15429 122.752 1.61237 124.07 2.93008C125.388 4.24827 125.846 5.8899 125.931 7.75865C125.987 8.98531 126 9.37679 126 12.5C126 15.6232 125.987 16.0147 125.931 17.2414C125.846 19.1111 125.388 20.7522 124.07 22.0699C122.752 23.3881 121.11 23.8457 119.241 23.931C118.015 23.9866 117.623 24 114.5 24C111.377 24 110.985 23.9866 109.759 23.931C107.889 23.8457 106.248 23.3876 104.93 22.0699C103.612 20.7517 103.154 19.1101 103.069 17.2414C103.013 16.0147 103 15.6232 103 12.5C103 9.37679 103.013 8.98531 103.069 7.75865C103.154 5.88894 103.612 4.24779 104.93 2.93008C106.248 1.6119 107.89 1.15429 109.759 1.069ZM119.147 3.139C117.934 3.08342 117.57 3.07192 114.5 3.07192C111.43 3.07192 111.066 3.0839 109.853 3.139C108.544 3.1989 107.33 3.461 106.395 4.39537C105.461 5.32975 105.199 6.54444 105.139 7.85304C105.083 9.06581 105.072 9.4295 105.072 12.5C105.072 15.5705 105.084 15.9342 105.139 17.147C105.199 18.4556 105.461 19.6702 106.395 20.6046C107.33 21.539 108.544 21.8011 109.853 21.861C111.065 21.9166 111.429 21.9281 114.5 21.9281C117.571 21.9281 117.935 21.9161 119.147 21.861C120.456 21.8011 121.67 21.539 122.605 20.6046C123.539 19.6702 123.801 18.4556 123.861 17.147C123.917 15.9342 123.928 15.5705 123.928 12.5C123.928 9.4295 123.916 9.06581 123.861 7.85304C123.801 6.54444 123.539 5.32975 122.605 4.39537C121.67 3.461 120.456 3.1989 119.147 3.139Z" fill="#F7F7FB"/>
<path fill-rule="evenodd" clip-rule="evenodd" d="M109.273 13.0229C109.273 9.84748 111.847 7.27295 115.023 7.27295C118.199 7.27295 120.773 9.84701 120.773 13.0229C120.773 16.1989 118.199 18.7729 115.023 18.7729C111.847 18.7729 109.273 16.1984 109.273 13.0229ZM111.29 13.0229C111.29 15.0843 112.962 16.7555 115.023 16.7555C117.084 16.7555 118.756 15.0843 118.756 13.0229C118.756 10.9616 117.084 9.29039 115.023 9.29039C112.962 9.29039 111.29 10.9616 111.29 13.0229Z" fill="#F7F7FB"/>
<path d="M120.25 8.318C121.116 8.318 121.818 7.61591 121.818 6.74982C121.818 5.88374 121.116 5.18164 120.25 5.18164C119.384 5.18164 118.682 5.88374 118.682 6.74982C118.682 7.61591 119.384 8.318 120.25 8.318Z" fill="#F7F7FB"/>
</g>
<g opacity="0.39774">
<path fill-rule="evenodd" clip-rule="evenodd" d="M156.958 1H178.042C178.569 1 179 1.43125 179 1.95833V23.0417C179 23.5687 178.569 24 178.042 24H156.958C156.431 24 156 23.5687 156 23.0417V1.95833C156 1.43125 156.431 1 156.958 1ZM159.402 20.5979H162.804V9.625H159.402V20.5979ZM161.127 8.13958C160.025 8.13958 159.162 7.27708 159.162 6.175C159.162 5.07292 160.025 4.21042 161.127 4.21042C162.229 4.21042 163.092 5.07292 163.092 6.175C163.092 7.22917 162.229 8.13958 161.127 8.13958ZM172.196 20.5979H175.55V14.5604C175.55 11.5896 174.927 9.3375 171.477 9.3375C169.848 9.3375 168.698 10.2479 168.267 11.1104H168.219V9.625H164.96V20.5979H168.363V15.1833C168.363 13.7458 168.65 12.3562 170.423 12.3562C172.196 12.3562 172.196 13.9854 172.196 15.2792V20.5979Z" fill="#F7F7FB"/>
</g>
</svg>
