<svg width="26" height="12" viewBox="0 0 26 12" fill="none" xmlns="http://www.w3.org/2000/svg">
<path d="M20.913 2.05537C19.0637 2.05537 15.981 4.24208 12.718 6.55752C9.85287 8.59065 6.60513 10.895 5.08696 10.895C2.90578 10.895 1.13043 9.1597 1.13043 7.02768C1.13043 4.89566 2.90578 3.16033 5.08696 3.16033C5.46904 3.16033 5.98622 3.30231 6.60626 3.56253L5.18417 6.10449C5.07791 6.29344 5.09487 6.52548 5.226 6.69841C5.33339 6.84095 5.50296 6.92161 5.67987 6.92161C5.71774 6.92161 5.7573 6.91774 5.79574 6.91001L10.8544 5.87632C11.015 5.84317 11.1534 5.74427 11.2331 5.60339C11.3128 5.46251 11.3258 5.29511 11.2687 5.14483L9.464 0.361464C9.38713 0.158152 9.19609 0.0172694 8.97509 0.00179994C8.75804 -0.0158794 8.54383 0.0979314 8.43813 0.287984L7.14887 2.59293C6.331 2.241 5.63748 2.05537 5.08696 2.05537C2.28178 2.05537 0 4.28573 0 7.02768C0 9.76964 2.28178 12 5.08696 12C6.97196 12 10.0857 9.79063 13.3821 7.45199C16.2167 5.44041 19.4305 3.16033 20.913 3.16033C23.0942 3.16033 24.8696 4.89566 24.8696 7.02768C24.8696 9.1597 23.0942 10.895 20.913 10.895C20.0177 10.895 18.391 10.1431 16.3325 8.77739C16.0748 8.60501 15.7232 8.67241 15.5474 8.92435C15.3717 9.17683 15.4395 9.52047 15.6978 9.69174C18.0061 11.2232 19.7611 12 20.913 12C23.7182 12 26 9.76964 26 7.02768C26 4.28573 23.7182 2.05537 20.913 2.05537Z" fill="#F04037"/>
</svg>
