<svg width="307" height="307" viewBox="0 0 307 307" fill="none" xmlns="http://www.w3.org/2000/svg">
<g filter="url(#filter0_d_0_303)">
<path fill-rule="evenodd" clip-rule="evenodd" d="M153.5 196.5C205.967 196.5 248.5 153.967 248.5 101.5C248.5 49.0329 205.967 6.5 153.5 6.5C101.033 6.5 58.5 49.0329 58.5 101.5C58.5 153.967 101.033 196.5 153.5 196.5Z" fill="#696871"/>
<path fill-rule="evenodd" clip-rule="evenodd" d="M153.5 196.5C205.967 196.5 248.5 153.967 248.5 101.5C248.5 49.0329 205.967 6.5 153.5 6.5C101.033 6.5 58.5 49.0329 58.5 101.5C58.5 153.967 101.033 196.5 153.5 196.5Z" stroke="white" stroke-width="9"/>
</g>
<mask id="mask0_0_303" style="mask-type:alpha" maskUnits="userSpaceOnUse" x="54" y="2" width="199" height="199">
<path fill-rule="evenodd" clip-rule="evenodd" d="M153.5 196.5C205.967 196.5 248.5 153.967 248.5 101.5C248.5 49.0329 205.967 6.5 153.5 6.5C101.033 6.5 58.5 49.0329 58.5 101.5C58.5 153.967 101.033 196.5 153.5 196.5Z" fill="white" stroke="white" stroke-width="9"/>
</mask>
<g mask="url(#mask0_0_303)">
</g>
<defs>
<filter id="filter0_d_0_303" x="0" y="0" width="307" height="307" filterUnits="userSpaceOnUse" color-interpolation-filters="sRGB">
<feFlood flood-opacity="0" result="BackgroundImageFix"/>
<feColorMatrix in="SourceAlpha" type="matrix" values="0 0 0 0 0 0 0 0 0 0 0 0 0 0 0 0 0 0 127 0" result="hardAlpha"/>
<feOffset dy="52"/>
<feGaussianBlur stdDeviation="27"/>
<feColorMatrix type="matrix" values="0 0 0 0 0.254026 0 0 0 0 0.241871 0 0 0 0 0.395211 0 0 0 0.296766 0"/>
<feBlend mode="normal" in2="BackgroundImageFix" result="effect1_dropShadow_0_303"/>
<feBlend mode="normal" in="SourceGraphic" in2="effect1_dropShadow_0_303" result="shape"/>
</filter>
</defs>
</svg>
