<svg width="1600" height="815" viewBox="0 0 1600 815" fill="none" xmlns="http://www.w3.org/2000/svg">
<g clip-path="url(#clip0_0_2002)">
<rect width="1600" height="815" fill="#F7F7FB"/>
<g clip-path="url(#clip1_0_2002)">
<g filter="url(#filter0_d_0_2002)">
<rect x="246" y="341" width="349" height="155" rx="10" fill="white"/>
</g>
<g clip-path="url(#clip2_0_2002)">
<path fill-rule="evenodd" clip-rule="evenodd" d="M297 385.581C297 389.419 291.5 395 291.5 395C291.5 395 286 389.419 286 385.581C286 382.049 288.842 380 291.5 380C294.158 380 297 382.049 297 385.581Z" stroke="#CDCCD9" stroke-width="2" stroke-linecap="round" stroke-linejoin="round"/>
<path fill-rule="evenodd" clip-rule="evenodd" d="M291.5 387C292.328 387 293 386.328 293 385.5C293 384.672 292.328 384 291.5 384C290.672 384 290 384.672 290 385.5C290 386.328 290.672 387 291.5 387Z" stroke="#CDCCD9" stroke-width="2" stroke-linecap="round" stroke-linejoin="round"/>
</g>
<g clip-path="url(#clip3_0_2002)">
<rect x="483" y="372" width="76" height="30" rx="5" fill="#5454D4" fill-opacity="0.1"/>
</g>
</g>
<g clip-path="url(#clip4_0_2002)">
<g filter="url(#filter1_d_0_2002)">
<rect x="1006" y="341" width="349" height="155" rx="10" fill="white"/>
</g>
<g clip-path="url(#clip5_0_2002)">
<path fill-rule="evenodd" clip-rule="evenodd" d="M1057 385.581C1057 389.419 1051.5 395 1051.5 395C1051.5 395 1046 389.419 1046 385.581C1046 382.049 1048.84 380 1051.5 380C1054.16 380 1057 382.049 1057 385.581Z" stroke="#CDCCD9" stroke-width="2" stroke-linecap="round" stroke-linejoin="round"/>
<path fill-rule="evenodd" clip-rule="evenodd" d="M1051.5 387C1052.33 387 1053 386.328 1053 385.5C1053 384.672 1052.33 384 1051.5 384C1050.67 384 1050 384.672 1050 385.5C1050 386.328 1050.67 387 1051.5 387Z" stroke="#CDCCD9" stroke-width="2" stroke-linecap="round" stroke-linejoin="round"/>
</g>
<g clip-path="url(#clip6_0_2002)">
<rect x="1243" y="372" width="76" height="30" rx="5" fill="#F04037" fill-opacity="0.1"/>
</g>
</g>
<g clip-path="url(#clip7_0_2002)">
<g filter="url(#filter2_d_0_2002)">
<rect x="246" y="526" width="349" height="155" rx="10" fill="white"/>
</g>
<g clip-path="url(#clip8_0_2002)">
<path fill-rule="evenodd" clip-rule="evenodd" d="M297 570.581C297 574.419 291.5 580 291.5 580C291.5 580 286 574.419 286 570.581C286 567.049 288.842 565 291.5 565C294.158 565 297 567.049 297 570.581Z" stroke="#CDCCD9" stroke-width="2" stroke-linecap="round" stroke-linejoin="round"/>
<path fill-rule="evenodd" clip-rule="evenodd" d="M291.5 572C292.328 572 293 571.328 293 570.5C293 569.672 292.328 569 291.5 569C290.672 569 290 569.672 290 570.5C290 571.328 290.672 572 291.5 572Z" stroke="#CDCCD9" stroke-width="2" stroke-linecap="round" stroke-linejoin="round"/>
</g>
<g clip-path="url(#clip9_0_2002)">
<rect x="483" y="557" width="76" height="30" rx="5" fill="#F04037" fill-opacity="0.1"/>
</g>
</g>
<g clip-path="url(#clip10_0_2002)">
<g filter="url(#filter3_d_0_2002)">
<rect x="626" y="526" width="349" height="155" rx="10" fill="white"/>
</g>
<g clip-path="url(#clip11_0_2002)">
<path fill-rule="evenodd" clip-rule="evenodd" d="M677 570.581C677 574.419 671.5 580 671.5 580C671.5 580 666 574.419 666 570.581C666 567.049 668.842 565 671.5 565C674.158 565 677 567.049 677 570.581Z" stroke="#CDCCD9" stroke-width="2" stroke-linecap="round" stroke-linejoin="round"/>
<path fill-rule="evenodd" clip-rule="evenodd" d="M671.5 572C672.328 572 673 571.328 673 570.5C673 569.672 672.328 569 671.5 569C670.672 569 670 569.672 670 570.5C670 571.328 670.672 572 671.5 572Z" stroke="#CDCCD9" stroke-width="2" stroke-linecap="round" stroke-linejoin="round"/>
</g>
<g clip-path="url(#clip12_0_2002)">
<rect x="863" y="557" width="76" height="30" rx="5" fill="#77BF41" fill-opacity="0.1"/>
</g>
</g>
<g clip-path="url(#clip13_0_2002)">
<g filter="url(#filter4_d_0_2002)">
<rect x="1006" y="526" width="349" height="155" rx="10" fill="white"/>
</g>
<g clip-path="url(#clip14_0_2002)">
<path fill-rule="evenodd" clip-rule="evenodd" d="M1057 570.581C1057 574.419 1051.5 580 1051.5 580C1051.5 580 1046 574.419 1046 570.581C1046 567.049 1048.84 565 1051.5 565C1054.16 565 1057 567.049 1057 570.581Z" stroke="#CDCCD9" stroke-width="2" stroke-linecap="round" stroke-linejoin="round"/>
<path fill-rule="evenodd" clip-rule="evenodd" d="M1051.5 572C1052.33 572 1053 571.328 1053 570.5C1053 569.672 1052.33 569 1051.5 569C1050.67 569 1050 569.672 1050 570.5C1050 571.328 1050.67 572 1051.5 572Z" stroke="#CDCCD9" stroke-width="2" stroke-linecap="round" stroke-linejoin="round"/>
</g>
<g clip-path="url(#clip15_0_2002)">
<rect x="1243" y="557" width="76" height="30" rx="5" fill="#5454D4" fill-opacity="0.1"/>
</g>
</g>
<g clip-path="url(#clip16_0_2002)">
<g filter="url(#filter5_d_0_2002)">
<rect x="626" y="341" width="349" height="155" rx="10" fill="white"/>
</g>
<g clip-path="url(#clip17_0_2002)">
<path fill-rule="evenodd" clip-rule="evenodd" d="M677 385.581C677 389.419 671.5 395 671.5 395C671.5 395 666 389.419 666 385.581C666 382.049 668.842 380 671.5 380C674.158 380 677 382.049 677 385.581Z" stroke="#CDCCD9" stroke-width="2" stroke-linecap="round" stroke-linejoin="round"/>
<path fill-rule="evenodd" clip-rule="evenodd" d="M671.5 387C672.328 387 673 386.328 673 385.5C673 384.672 672.328 384 671.5 384C670.672 384 670 384.672 670 385.5C670 386.328 670.672 387 671.5 387Z" stroke="#CDCCD9" stroke-width="2" stroke-linecap="round" stroke-linejoin="round"/>
</g>
<g clip-path="url(#clip18_0_2002)">
<rect x="863" y="372" width="76" height="30" rx="5" fill="#F04037" fill-opacity="0.1"/>
</g>
</g>
</g>
<defs>
<filter id="filter0_d_0_2002" x="242" y="339" width="357" height="163" filterUnits="userSpaceOnUse" color-interpolation-filters="sRGB">
<feFlood flood-opacity="0" result="BackgroundImageFix"/>
<feColorMatrix in="SourceAlpha" type="matrix" values="0 0 0 0 0 0 0 0 0 0 0 0 0 0 0 0 0 0 127 0" result="hardAlpha"/>
<feOffset dy="2"/>
<feGaussianBlur stdDeviation="2"/>
<feColorMatrix type="matrix" values="0 0 0 0 0.056796 0 0 0 0 0.337474 0 0 0 0 0.487697 0 0 0 0.165308 0"/>
<feBlend mode="normal" in2="BackgroundImageFix" result="effect1_dropShadow_0_2002"/>
<feBlend mode="normal" in="SourceGraphic" in2="effect1_dropShadow_0_2002" result="shape"/>
</filter>
<filter id="filter1_d_0_2002" x="1002" y="339" width="357" height="163" filterUnits="userSpaceOnUse" color-interpolation-filters="sRGB">
<feFlood flood-opacity="0" result="BackgroundImageFix"/>
<feColorMatrix in="SourceAlpha" type="matrix" values="0 0 0 0 0 0 0 0 0 0 0 0 0 0 0 0 0 0 127 0" result="hardAlpha"/>
<feOffset dy="2"/>
<feGaussianBlur stdDeviation="2"/>
<feColorMatrix type="matrix" values="0 0 0 0 0.056796 0 0 0 0 0.337474 0 0 0 0 0.487697 0 0 0 0.165308 0"/>
<feBlend mode="normal" in2="BackgroundImageFix" result="effect1_dropShadow_0_2002"/>
<feBlend mode="normal" in="SourceGraphic" in2="effect1_dropShadow_0_2002" result="shape"/>
</filter>
<filter id="filter2_d_0_2002" x="242" y="524" width="357" height="163" filterUnits="userSpaceOnUse" color-interpolation-filters="sRGB">
<feFlood flood-opacity="0" result="BackgroundImageFix"/>
<feColorMatrix in="SourceAlpha" type="matrix" values="0 0 0 0 0 0 0 0 0 0 0 0 0 0 0 0 0 0 127 0" result="hardAlpha"/>
<feOffset dy="2"/>
<feGaussianBlur stdDeviation="2"/>
<feColorMatrix type="matrix" values="0 0 0 0 0.056796 0 0 0 0 0.337474 0 0 0 0 0.487697 0 0 0 0.165308 0"/>
<feBlend mode="normal" in2="BackgroundImageFix" result="effect1_dropShadow_0_2002"/>
<feBlend mode="normal" in="SourceGraphic" in2="effect1_dropShadow_0_2002" result="shape"/>
</filter>
<filter id="filter3_d_0_2002" x="622" y="524" width="357" height="163" filterUnits="userSpaceOnUse" color-interpolation-filters="sRGB">
<feFlood flood-opacity="0" result="BackgroundImageFix"/>
<feColorMatrix in="SourceAlpha" type="matrix" values="0 0 0 0 0 0 0 0 0 0 0 0 0 0 0 0 0 0 127 0" result="hardAlpha"/>
<feOffset dy="2"/>
<feGaussianBlur stdDeviation="2"/>
<feColorMatrix type="matrix" values="0 0 0 0 0.056796 0 0 0 0 0.337474 0 0 0 0 0.487697 0 0 0 0.165308 0"/>
<feBlend mode="normal" in2="BackgroundImageFix" result="effect1_dropShadow_0_2002"/>
<feBlend mode="normal" in="SourceGraphic" in2="effect1_dropShadow_0_2002" result="shape"/>
</filter>
<filter id="filter4_d_0_2002" x="1002" y="524" width="357" height="163" filterUnits="userSpaceOnUse" color-interpolation-filters="sRGB">
<feFlood flood-opacity="0" result="BackgroundImageFix"/>
<feColorMatrix in="SourceAlpha" type="matrix" values="0 0 0 0 0 0 0 0 0 0 0 0 0 0 0 0 0 0 127 0" result="hardAlpha"/>
<feOffset dy="2"/>
<feGaussianBlur stdDeviation="2"/>
<feColorMatrix type="matrix" values="0 0 0 0 0.056796 0 0 0 0 0.337474 0 0 0 0 0.487697 0 0 0 0.165308 0"/>
<feBlend mode="normal" in2="BackgroundImageFix" result="effect1_dropShadow_0_2002"/>
<feBlend mode="normal" in="SourceGraphic" in2="effect1_dropShadow_0_2002" result="shape"/>
</filter>
<filter id="filter5_d_0_2002" x="572" y="339" width="457" height="263" filterUnits="userSpaceOnUse" color-interpolation-filters="sRGB">
<feFlood flood-opacity="0" result="BackgroundImageFix"/>
<feColorMatrix in="SourceAlpha" type="matrix" values="0 0 0 0 0 0 0 0 0 0 0 0 0 0 0 0 0 0 127 0" result="hardAlpha"/>
<feOffset dy="52"/>
<feGaussianBlur stdDeviation="27"/>
<feColorMatrix type="matrix" values="0 0 0 0 0.254026 0 0 0 0 0.241871 0 0 0 0 0.395211 0 0 0 0.296766 0"/>
<feBlend mode="normal" in2="BackgroundImageFix" result="effect1_dropShadow_0_2002"/>
<feBlend mode="normal" in="SourceGraphic" in2="effect1_dropShadow_0_2002" result="shape"/>
</filter>
<clipPath id="clip0_0_2002">
<rect width="1600" height="815" fill="white"/>
</clipPath>
<clipPath id="clip1_0_2002">
<rect width="349" height="155" fill="white" transform="translate(246 341)"/>
</clipPath>
<clipPath id="clip2_0_2002">
<rect width="152" height="28" fill="white" transform="translate(286 373)"/>
</clipPath>
<clipPath id="clip3_0_2002">
<rect width="76" height="30" fill="white" transform="translate(483 372)"/>
</clipPath>
<clipPath id="clip4_0_2002">
<rect width="349" height="155" fill="white" transform="translate(1006 341)"/>
</clipPath>
<clipPath id="clip5_0_2002">
<rect width="173" height="28" fill="white" transform="translate(1046 373)"/>
</clipPath>
<clipPath id="clip6_0_2002">
<rect width="76" height="30" fill="white" transform="translate(1243 372)"/>
</clipPath>
<clipPath id="clip7_0_2002">
<rect width="349" height="155" fill="white" transform="translate(246 526)"/>
</clipPath>
<clipPath id="clip8_0_2002">
<rect width="161" height="28" fill="white" transform="translate(286 558)"/>
</clipPath>
<clipPath id="clip9_0_2002">
<rect width="76" height="30" fill="white" transform="translate(483 557)"/>
</clipPath>
<clipPath id="clip10_0_2002">
<rect width="349" height="155" fill="white" transform="translate(626 526)"/>
</clipPath>
<clipPath id="clip11_0_2002">
<rect width="94" height="28" fill="white" transform="translate(666 558)"/>
</clipPath>
<clipPath id="clip12_0_2002">
<rect width="76" height="30" fill="white" transform="translate(863 557)"/>
</clipPath>
<clipPath id="clip13_0_2002">
<rect width="349" height="155" fill="white" transform="translate(1006 526)"/>
</clipPath>
<clipPath id="clip14_0_2002">
<rect width="128" height="28" fill="white" transform="translate(1046 558)"/>
</clipPath>
<clipPath id="clip15_0_2002">
<rect width="76" height="30" fill="white" transform="translate(1243 557)"/>
</clipPath>
<clipPath id="clip16_0_2002">
<rect width="349" height="155" fill="white" transform="translate(626 341)"/>
</clipPath>
<clipPath id="clip17_0_2002">
<rect width="154" height="28" fill="white" transform="translate(666 373)"/>
</clipPath>
<clipPath id="clip18_0_2002">
<rect width="76" height="30" fill="white" transform="translate(863 372)"/>
</clipPath>
</defs>
</svg>
