<svg width="562" height="674" viewBox="0 0 562 674" fill="none" xmlns="http://www.w3.org/2000/svg">
<g filter="url(#filter0_d_0_472)">
<rect x="127.5" y="2" width="380" height="566" rx="10" fill="#696871"/>
</g>
<mask id="mask0_0_472" style="mask-type:alpha" maskUnits="userSpaceOnUse" x="127" y="2" width="381" height="566">
<rect x="127.5" y="2" width="380" height="566" rx="10" fill="white"/>
</mask>
<g mask="url(#mask0_0_472)">
</g>
<g filter="url(#filter1_d_0_472)">
<path fill-rule="evenodd" clip-rule="evenodd" d="M153.5 497C205.967 497 248.5 454.467 248.5 402C248.5 349.533 205.967 307 153.5 307C101.033 307 58.5 349.533 58.5 402C58.5 454.467 101.033 497 153.5 497Z" fill="#696871"/>
<path fill-rule="evenodd" clip-rule="evenodd" d="M153.5 497C205.967 497 248.5 454.467 248.5 402C248.5 349.533 205.967 307 153.5 307C101.033 307 58.5 349.533 58.5 402C58.5 454.467 101.033 497 153.5 497Z" stroke="white" stroke-width="9"/>
</g>
<mask id="mask1_0_472" style="mask-type:alpha" maskUnits="userSpaceOnUse" x="54" y="302" width="199" height="200">
<path fill-rule="evenodd" clip-rule="evenodd" d="M153.5 497C205.967 497 248.5 454.467 248.5 402C248.5 349.533 205.967 307 153.5 307C101.033 307 58.5 349.533 58.5 402C58.5 454.467 101.033 497 153.5 497Z" fill="white" stroke="white" stroke-width="9"/>
</mask>
<g mask="url(#mask1_0_472)">
</g>
<defs>
<filter id="filter0_d_0_472" x="73.5" y="0" width="488" height="674" filterUnits="userSpaceOnUse" color-interpolation-filters="sRGB">
<feFlood flood-opacity="0" result="BackgroundImageFix"/>
<feColorMatrix in="SourceAlpha" type="matrix" values="0 0 0 0 0 0 0 0 0 0 0 0 0 0 0 0 0 0 127 0" result="hardAlpha"/>
<feOffset dy="52"/>
<feGaussianBlur stdDeviation="27"/>
<feColorMatrix type="matrix" values="0 0 0 0 0.254026 0 0 0 0 0.241871 0 0 0 0 0.395211 0 0 0 0.296766 0"/>
<feBlend mode="normal" in2="BackgroundImageFix" result="effect1_dropShadow_0_472"/>
<feBlend mode="normal" in="SourceGraphic" in2="effect1_dropShadow_0_472" result="shape"/>
</filter>
<filter id="filter1_d_0_472" x="0" y="300.5" width="307" height="307" filterUnits="userSpaceOnUse" color-interpolation-filters="sRGB">
<feFlood flood-opacity="0" result="BackgroundImageFix"/>
<feColorMatrix in="SourceAlpha" type="matrix" values="0 0 0 0 0 0 0 0 0 0 0 0 0 0 0 0 0 0 127 0" result="hardAlpha"/>
<feOffset dy="52"/>
<feGaussianBlur stdDeviation="27"/>
<feColorMatrix type="matrix" values="0 0 0 0 0.254026 0 0 0 0 0.241871 0 0 0 0 0.395211 0 0 0 0.296766 0"/>
<feBlend mode="normal" in2="BackgroundImageFix" result="effect1_dropShadow_0_472"/>
<feBlend mode="normal" in="SourceGraphic" in2="effect1_dropShadow_0_472" result="shape"/>
</filter>
</defs>
</svg>
