<svg width="48" height="46" viewBox="0 0 48 46" fill="none" xmlns="http://www.w3.org/2000/svg">
<path fill-rule="evenodd" clip-rule="evenodd" d="M34.4193 8.00478e-06H34.2949C32.4279 -0.00155879 30.5817 0.393338 28.8775 1.15877L22.9091 13.1429L31.6364 20.8096L21.8182 35.0477L26.1818 21.9048L16.3636 14.2382L21.684 2.66364C19.3848 0.931674 16.5872 -0.00315592 13.7127 8.00478e-06H13.5851C6.10514 0.0316957 0.0453901 6.10428 0 13.6139C0 26.5049 22.3636 44.9728 23.3095 45.7526C23.7112 46.0825 24.2888 46.0825 24.6905 45.7526C25.6418 44.9728 48 26.5049 48 13.6095C47.9558 6.10182 41.8973 0.0305086 34.4193 8.00478e-06Z" fill="#F04037"/>
</svg>
