<svg width="1110" height="681" viewBox="0 0 1110 681" fill="none" xmlns="http://www.w3.org/2000/svg">
<g clip-path="url(#clip0_0_2426)">
<rect y="44" width="1110" height="65" fill="#F7F7FB"/>
</g>
<g clip-path="url(#clip1_0_2426)">
<rect y="112" width="1110" height="65" fill="#F7F7FB"/>
</g>
<g clip-path="url(#clip2_0_2426)">
<rect y="180" width="1110" height="65" fill="#F7F7FB"/>
</g>
<g clip-path="url(#clip3_0_2426)">
<rect y="248" width="1110" height="65" fill="#F7F7FB"/>
<path fill-rule="evenodd" clip-rule="evenodd" d="M330.171 274L325 279.171L319.829 274L318 275.829L323.171 281L318 286.171L319.829 288L325 282.829L330.171 288L332 286.171L326.829 281L332 275.829L330.171 274Z" fill="#F04037"/>
<path fill-rule="evenodd" clip-rule="evenodd" d="M521.717 284.115L517.448 279.736L516 281.222L521.717 287.087L534 274.486L532.552 273L521.717 284.115Z" fill="#67D216"/>
<path fill-rule="evenodd" clip-rule="evenodd" d="M715.717 284.115L711.448 279.736L710 281.222L715.717 287.087L728 274.486L726.552 273L715.717 284.115Z" fill="#67D216"/>
<path fill-rule="evenodd" clip-rule="evenodd" d="M913.717 284.115L909.448 279.736L908 281.222L913.717 287.087L926 274.486L924.552 273L913.717 284.115Z" fill="#67D216"/>
</g>
<g clip-path="url(#clip4_0_2426)">
<rect y="316" width="1110" height="65" fill="#F7F7FB"/>
<path fill-rule="evenodd" clip-rule="evenodd" d="M330.171 342L325 347.171L319.829 342L318 343.829L323.171 349L318 354.171L319.829 356L325 350.829L330.171 356L332 354.171L326.829 349L332 343.829L330.171 342Z" fill="#F04037"/>
<path fill-rule="evenodd" clip-rule="evenodd" d="M529.171 342L524 347.171L518.829 342L517 343.829L522.171 349L517 354.171L518.829 356L524 350.829L529.171 356L531 354.171L525.829 349L531 343.829L529.171 342Z" fill="#F04037"/>
<path fill-rule="evenodd" clip-rule="evenodd" d="M715.717 352.115L711.448 347.736L710 349.222L715.717 355.087L728 342.486L726.552 341L715.717 352.115Z" fill="#67D216"/>
<path fill-rule="evenodd" clip-rule="evenodd" d="M913.717 352.115L909.448 347.736L908 349.222L913.717 355.087L926 342.486L924.552 341L913.717 352.115Z" fill="#67D216"/>
</g>
<g clip-path="url(#clip5_0_2426)">
<rect y="384" width="1110" height="65" fill="#F7F7FB"/>
<path fill-rule="evenodd" clip-rule="evenodd" d="M330.171 410L325 415.171L319.829 410L318 411.829L323.171 417L318 422.171L319.829 424L325 418.829L330.171 424L332 422.171L326.829 417L332 411.829L330.171 410Z" fill="#F04037"/>
<path fill-rule="evenodd" clip-rule="evenodd" d="M715.717 420.115L711.448 415.736L710 417.222L715.717 423.087L728 410.486L726.552 409L715.717 420.115Z" fill="#67D216"/>
<path fill-rule="evenodd" clip-rule="evenodd" d="M521.717 420.115L517.448 415.736L516 417.222L521.717 423.087L534 410.486L532.552 409L521.717 420.115Z" fill="#67D216"/>
<path fill-rule="evenodd" clip-rule="evenodd" d="M913.717 420.115L909.448 415.736L908 417.222L913.717 423.087L926 410.486L924.552 409L913.717 420.115Z" fill="#67D216"/>
</g>
<g clip-path="url(#clip6_0_2426)">
<rect y="452" width="1110" height="65" fill="#F7F7FB"/>
<path fill-rule="evenodd" clip-rule="evenodd" d="M715.717 488.115L711.448 483.736L710 485.222L715.717 491.087L728 478.486L726.552 477L715.717 488.115Z" fill="#67D216"/>
<path fill-rule="evenodd" clip-rule="evenodd" d="M521.717 488.115L517.448 483.736L516 485.222L521.717 491.087L534 478.486L532.552 477L521.717 488.115Z" fill="#67D216"/>
<path fill-rule="evenodd" clip-rule="evenodd" d="M913.717 488.115L909.448 483.736L908 485.222L913.717 491.087L926 478.486L924.552 477L913.717 488.115Z" fill="#67D216"/>
</g>
<g clip-path="url(#clip7_0_2426)">
<rect x="312" y="631" width="167" height="50" rx="5" fill="white" stroke="#EAE9F2"/>
</g>
<g clip-path="url(#clip8_0_2426)">
<rect x="514" y="631" width="167" height="50" rx="5" fill="white" stroke="#EAE9F2"/>
</g>
<g clip-path="url(#clip9_0_2426)">
<rect x="906" y="631" width="167" height="50" rx="5" fill="white" stroke="#EAE9F2"/>
</g>
<g clip-path="url(#clip10_0_2426)">
<rect x="710" y="631" width="167" height="50" rx="5" fill="#F04037" stroke="#C31A12"/>
</g>
<path d="M294 84V521" stroke="white" stroke-width="2" stroke-linecap="square"/>
<path d="M489 84V521" stroke="white" stroke-width="2" stroke-linecap="square"/>
<path d="M683 84V521" stroke="white" stroke-width="2" stroke-linecap="square"/>
<path d="M878 84V521" stroke="white" stroke-width="2" stroke-linecap="square"/>
<defs>
<clipPath id="clip0_0_2426">
<rect width="1110" height="65" fill="white" transform="translate(0 44)"/>
</clipPath>
<clipPath id="clip1_0_2426">
<rect width="1110" height="65" fill="white" transform="translate(0 112)"/>
</clipPath>
<clipPath id="clip2_0_2426">
<rect width="1110" height="65" fill="white" transform="translate(0 180)"/>
</clipPath>
<clipPath id="clip3_0_2426">
<rect width="1110" height="65" fill="white" transform="translate(0 248)"/>
</clipPath>
<clipPath id="clip4_0_2426">
<rect width="1110" height="65" fill="white" transform="translate(0 316)"/>
</clipPath>
<clipPath id="clip5_0_2426">
<rect width="1110" height="65" fill="white" transform="translate(0 384)"/>
</clipPath>
<clipPath id="clip6_0_2426">
<rect width="1110" height="65" fill="white" transform="translate(0 452)"/>
</clipPath>
<clipPath id="clip7_0_2426">
<rect width="167" height="50" fill="white" transform="translate(312 631)"/>
</clipPath>
<clipPath id="clip8_0_2426">
<rect width="167" height="50" fill="white" transform="translate(514 631)"/>
</clipPath>
<clipPath id="clip9_0_2426">
<rect width="167" height="50" fill="white" transform="translate(906 631)"/>
</clipPath>
<clipPath id="clip10_0_2426">
<rect width="167" height="50" fill="white" transform="translate(710 631)"/>
</clipPath>
</defs>
</svg>
