<svg width="26" height="24" viewBox="0 0 26 24" fill="none" xmlns="http://www.w3.org/2000/svg">
<path fill-rule="evenodd" clip-rule="evenodd" d="M23.1739 0H2.82609C1.26528 0 0 1.27917 0 2.85711V15.4284C0 16.1862 0.297748 16.9129 0.827742 17.4487C1.35774 17.9845 2.07656 18.2855 2.82609 18.2855H8.20696L12.5591 23.7854C12.6664 23.9211 12.8288 24 13.0006 24C13.1723 24 13.3347 23.9211 13.442 23.7854L17.793 18.2855H23.1739C24.7347 18.2855 26 17.0063 26 15.4284V2.85711C26 1.27917 24.7347 0 23.1739 0ZM14.1917 12H6.60833C6.30918 12 6.06667 11.8081 6.06667 11.5714C6.06667 11.3347 6.30918 11.1429 6.60833 11.1429H14.1917C14.4908 11.1429 14.7333 11.3347 14.7333 11.5714C14.7333 11.8081 14.4908 12 14.1917 12ZM6.63333 6.85714H20.2333C20.5463 6.85714 20.8 6.66527 20.8 6.42857C20.8 6.19188 20.5463 6 20.2333 6H6.63333C6.32037 6 6.06667 6.19188 6.06667 6.42857C6.06667 6.66527 6.32037 6.85714 6.63333 6.85714Z" fill="#77BF41"/>
</svg>
