<svg width="1110" height="1321" viewBox="0 0 1110 1321" fill="none" xmlns="http://www.w3.org/2000/svg">
<g clip-path="url(#clip0_0_3849)">
<g filter="url(#filter0_d_0_3849)">
<rect width="350" height="403" rx="10" fill="white"/>
<rect width="350" height="403" rx="10" stroke="#EAE9F2"/>
</g>
<path fill-rule="evenodd" clip-rule="evenodd" d="M58.5 362C70.3741 362 80 352.374 80 340.5C80 328.626 70.3741 319 58.5 319C46.6259 319 37 328.626 37 340.5C37 352.374 46.6259 362 58.5 362Z" fill="#696871"/>
<path fill-rule="evenodd" clip-rule="evenodd" d="M45.3136 39.2051L47.5966 44.0569L52.7 44.8351C52.8321 44.8557 52.9417 44.9527 52.9829 45.0855C53.024 45.2183 52.9896 45.3641 52.8941 45.4617L49.202 49.2374L50.0737 54.57C50.0966 54.7075 50.0428 54.8466 49.9348 54.9288C49.8269 55.011 49.6836 55.0219 49.5655 54.9569L45.0005 52.4397L40.4356 54.9576C40.3175 55.0228 40.1742 55.0121 40.0662 54.93C39.9582 54.8478 39.9043 54.7086 39.9274 54.571L40.7991 49.2374L37.1059 45.4617C37.0103 45.3641 36.976 45.2183 37.0171 45.0855C37.0583 44.9527 37.1679 44.8557 37.3 44.8351L42.4034 44.0569L44.6874 39.2051C44.7456 39.0797 44.8672 39 45.0005 39C45.1339 39 45.2555 39.0797 45.3136 39.2051Z" fill="#F04037"/>
<path fill-rule="evenodd" clip-rule="evenodd" d="M65.3136 39.2051L67.5966 44.0569L72.7 44.8351C72.8321 44.8557 72.9417 44.9527 72.9829 45.0855C73.024 45.2183 72.9896 45.3641 72.8941 45.4617L69.202 49.2374L70.0737 54.57C70.0966 54.7075 70.0428 54.8466 69.9348 54.9288C69.8269 55.011 69.6836 55.0219 69.5655 54.9569L65.0005 52.4397L60.4356 54.9576C60.3175 55.0228 60.1742 55.0121 60.0662 54.93C59.9582 54.8478 59.9043 54.7086 59.9274 54.571L60.7991 49.2374L57.1059 45.4617C57.0103 45.3641 56.976 45.2183 57.0171 45.0855C57.0583 44.9527 57.1679 44.8557 57.3 44.8351L62.4034 44.0569L64.6874 39.2051C64.7456 39.0797 64.8672 39 65.0005 39C65.1339 39 65.2555 39.0797 65.3136 39.2051Z" fill="#F04037"/>
<path fill-rule="evenodd" clip-rule="evenodd" d="M85.3136 39.2051L87.5966 44.0569L92.7 44.8351C92.8321 44.8557 92.9417 44.9527 92.9829 45.0855C93.024 45.2183 92.9896 45.3641 92.8941 45.4617L89.202 49.2374L90.0737 54.57C90.0966 54.7075 90.0428 54.8466 89.9348 54.9288C89.8269 55.011 89.6836 55.0219 89.5655 54.9569L85.0005 52.4397L80.4356 54.9576C80.3175 55.0228 80.1742 55.0121 80.0662 54.93C79.9582 54.8478 79.9043 54.7086 79.9274 54.571L80.7991 49.2374L77.1059 45.4617C77.0103 45.3641 76.976 45.2183 77.0171 45.0855C77.0583 44.9527 77.1679 44.8557 77.3 44.8351L82.4034 44.0569L84.6874 39.2051C84.7456 39.0797 84.8672 39 85.0005 39C85.1339 39 85.2555 39.0797 85.3136 39.2051Z" fill="#F04037"/>
<path fill-rule="evenodd" clip-rule="evenodd" d="M105.314 39.2051L107.597 44.0569L112.7 44.8351C112.832 44.8557 112.942 44.9527 112.983 45.0855C113.024 45.2183 112.99 45.3641 112.894 45.4617L109.202 49.2374L110.074 54.57C110.097 54.7075 110.043 54.8466 109.935 54.9288C109.827 55.011 109.684 55.0219 109.565 54.9569L105.001 52.4397L100.436 54.9576C100.317 55.0228 100.174 55.0121 100.066 54.93C99.9582 54.8478 99.9043 54.7086 99.9274 54.571L100.799 49.2374L97.1059 45.4617C97.0103 45.3641 96.976 45.2183 97.0171 45.0855C97.0583 44.9527 97.1679 44.8557 97.3 44.8351L102.403 44.0569L104.687 39.2051C104.746 39.0797 104.867 39 105.001 39C105.134 39 105.255 39.0797 105.314 39.2051Z" fill="#F04037"/>
<path fill-rule="evenodd" clip-rule="evenodd" d="M125.314 39.2051L127.597 44.0569L132.7 44.8351C132.832 44.8557 132.942 44.9527 132.983 45.0855C133.024 45.2183 132.99 45.3641 132.894 45.4617L129.202 49.2374L130.074 54.57C130.097 54.7075 130.043 54.8466 129.935 54.9288C129.827 55.011 129.684 55.0219 129.565 54.9569L125.001 52.4397L120.436 54.9576C120.317 55.0228 120.174 55.0121 120.066 54.93C119.958 54.8478 119.904 54.7086 119.927 54.571L120.799 49.2374L117.106 45.4617C117.01 45.3641 116.976 45.2183 117.017 45.0855C117.058 44.9527 117.168 44.8557 117.3 44.8351L122.403 44.0569L124.687 39.2051C124.746 39.0797 124.867 39 125.001 39C125.134 39 125.255 39.0797 125.314 39.2051Z" fill="#F04037"/>
</g>
<g clip-path="url(#clip1_0_3849)">
<g filter="url(#filter1_d_0_3849)">
<rect x="381" width="350" height="403" rx="10" fill="white"/>
<rect x="381" width="350" height="403" rx="10" stroke="#EAE9F2"/>
</g>
<path fill-rule="evenodd" clip-rule="evenodd" d="M439.5 362C451.374 362 461 352.374 461 340.5C461 328.626 451.374 319 439.5 319C427.626 319 418 328.626 418 340.5C418 352.374 427.626 362 439.5 362Z" fill="#696871"/>
<path fill-rule="evenodd" clip-rule="evenodd" d="M426.314 39.2051L428.597 44.0569L433.7 44.8351C433.832 44.8557 433.942 44.9527 433.983 45.0855C434.024 45.2183 433.99 45.3641 433.894 45.4617L430.202 49.2374L431.074 54.57C431.097 54.7075 431.043 54.8466 430.935 54.9288C430.827 55.011 430.684 55.0219 430.565 54.9569L426.001 52.4397L421.436 54.9576C421.317 55.0228 421.174 55.0121 421.066 54.93C420.958 54.8478 420.904 54.7086 420.927 54.571L421.799 49.2374L418.106 45.4617C418.01 45.3641 417.976 45.2183 418.017 45.0855C418.058 44.9527 418.168 44.8557 418.3 44.8351L423.403 44.0569L425.687 39.2051C425.746 39.0797 425.867 39 426.001 39C426.134 39 426.255 39.0797 426.314 39.2051Z" fill="#F04037"/>
<path fill-rule="evenodd" clip-rule="evenodd" d="M446.314 39.2051L448.597 44.0569L453.7 44.8351C453.832 44.8557 453.942 44.9527 453.983 45.0855C454.024 45.2183 453.99 45.3641 453.894 45.4617L450.202 49.2374L451.074 54.57C451.097 54.7075 451.043 54.8466 450.935 54.9288C450.827 55.011 450.684 55.0219 450.565 54.9569L446.001 52.4397L441.436 54.9576C441.317 55.0228 441.174 55.0121 441.066 54.93C440.958 54.8478 440.904 54.7086 440.927 54.571L441.799 49.2374L438.106 45.4617C438.01 45.3641 437.976 45.2183 438.017 45.0855C438.058 44.9527 438.168 44.8557 438.3 44.8351L443.403 44.0569L445.687 39.2051C445.746 39.0797 445.867 39 446.001 39C446.134 39 446.255 39.0797 446.314 39.2051Z" fill="#F04037"/>
<path fill-rule="evenodd" clip-rule="evenodd" d="M466.314 39.2051L468.597 44.0569L473.7 44.8351C473.832 44.8557 473.942 44.9527 473.983 45.0855C474.024 45.2183 473.99 45.3641 473.894 45.4617L470.202 49.2374L471.074 54.57C471.097 54.7075 471.043 54.8466 470.935 54.9288C470.827 55.011 470.684 55.0219 470.565 54.9569L466.001 52.4397L461.436 54.9576C461.317 55.0228 461.174 55.0121 461.066 54.93C460.958 54.8478 460.904 54.7086 460.927 54.571L461.799 49.2374L458.106 45.4617C458.01 45.3641 457.976 45.2183 458.017 45.0855C458.058 44.9527 458.168 44.8557 458.3 44.8351L463.403 44.0569L465.687 39.2051C465.746 39.0797 465.867 39 466.001 39C466.134 39 466.255 39.0797 466.314 39.2051Z" fill="#F04037"/>
<path fill-rule="evenodd" clip-rule="evenodd" d="M486.314 39.2051L488.597 44.0569L493.7 44.8351C493.832 44.8557 493.942 44.9527 493.983 45.0855C494.024 45.2183 493.99 45.3641 493.894 45.4617L490.202 49.2374L491.074 54.57C491.097 54.7075 491.043 54.8466 490.935 54.9288C490.827 55.011 490.684 55.0219 490.565 54.9569L486.001 52.4397L481.436 54.9576C481.317 55.0228 481.174 55.0121 481.066 54.93C480.958 54.8478 480.904 54.7086 480.927 54.571L481.799 49.2374L478.106 45.4617C478.01 45.3641 477.976 45.2183 478.017 45.0855C478.058 44.9527 478.168 44.8557 478.3 44.8351L483.403 44.0569L485.687 39.2051C485.746 39.0797 485.867 39 486.001 39C486.134 39 486.255 39.0797 486.314 39.2051Z" fill="#F04037"/>
<path fill-rule="evenodd" clip-rule="evenodd" d="M506.314 39.2051L508.597 44.0569L513.7 44.8351C513.832 44.8557 513.942 44.9527 513.983 45.0855C514.024 45.2183 513.99 45.3641 513.894 45.4617L510.202 49.2374L511.074 54.57C511.097 54.7075 511.043 54.8466 510.935 54.9288C510.827 55.011 510.684 55.0219 510.565 54.9569L506.001 52.4397L501.436 54.9576C501.317 55.0228 501.174 55.0121 501.066 54.93C500.958 54.8478 500.904 54.7086 500.927 54.571L501.799 49.2374L498.106 45.4617C498.01 45.3641 497.976 45.2183 498.017 45.0855C498.058 44.9527 498.168 44.8557 498.3 44.8351L503.403 44.0569L505.687 39.2051C505.746 39.0797 505.867 39 506.001 39C506.134 39 506.255 39.0797 506.314 39.2051Z" fill="#D8D7E6"/>
</g>
<g clip-path="url(#clip2_0_3849)">
<g filter="url(#filter2_d_0_3849)">
<rect x="760" width="350" height="403" rx="10" fill="white"/>
<rect x="760" width="350" height="403" rx="10" stroke="#EAE9F2"/>
</g>
<path fill-rule="evenodd" clip-rule="evenodd" d="M818.5 362C830.374 362 840 352.374 840 340.5C840 328.626 830.374 319 818.5 319C806.626 319 797 328.626 797 340.5C797 352.374 806.626 362 818.5 362Z" fill="#696871"/>
<path fill-rule="evenodd" clip-rule="evenodd" d="M805.314 39.2051L807.597 44.0569L812.7 44.8351C812.832 44.8557 812.942 44.9527 812.983 45.0855C813.024 45.2183 812.99 45.3641 812.894 45.4617L809.202 49.2374L810.074 54.57C810.097 54.7075 810.043 54.8466 809.935 54.9288C809.827 55.011 809.684 55.0219 809.565 54.9569L805.001 52.4397L800.436 54.9576C800.317 55.0228 800.174 55.0121 800.066 54.93C799.958 54.8478 799.904 54.7086 799.927 54.571L800.799 49.2374L797.106 45.4617C797.01 45.3641 796.976 45.2183 797.017 45.0855C797.058 44.9527 797.168 44.8557 797.3 44.8351L802.403 44.0569L804.687 39.2051C804.746 39.0797 804.867 39 805.001 39C805.134 39 805.255 39.0797 805.314 39.2051Z" fill="#F04037"/>
<path fill-rule="evenodd" clip-rule="evenodd" d="M825.314 39.2051L827.597 44.0569L832.7 44.8351C832.832 44.8557 832.942 44.9527 832.983 45.0855C833.024 45.2183 832.99 45.3641 832.894 45.4617L829.202 49.2374L830.074 54.57C830.097 54.7075 830.043 54.8466 829.935 54.9288C829.827 55.011 829.684 55.0219 829.565 54.9569L825.001 52.4397L820.436 54.9576C820.317 55.0228 820.174 55.0121 820.066 54.93C819.958 54.8478 819.904 54.7086 819.927 54.571L820.799 49.2374L817.106 45.4617C817.01 45.3641 816.976 45.2183 817.017 45.0855C817.058 44.9527 817.168 44.8557 817.3 44.8351L822.403 44.0569L824.687 39.2051C824.746 39.0797 824.867 39 825.001 39C825.134 39 825.255 39.0797 825.314 39.2051Z" fill="#F04037"/>
<path fill-rule="evenodd" clip-rule="evenodd" d="M845.314 39.2051L847.597 44.0569L852.7 44.8351C852.832 44.8557 852.942 44.9527 852.983 45.0855C853.024 45.2183 852.99 45.3641 852.894 45.4617L849.202 49.2374L850.074 54.57C850.097 54.7075 850.043 54.8466 849.935 54.9288C849.827 55.011 849.684 55.0219 849.565 54.9569L845.001 52.4397L840.436 54.9576C840.317 55.0228 840.174 55.0121 840.066 54.93C839.958 54.8478 839.904 54.7086 839.927 54.571L840.799 49.2374L837.106 45.4617C837.01 45.3641 836.976 45.2183 837.017 45.0855C837.058 44.9527 837.168 44.8557 837.3 44.8351L842.403 44.0569L844.687 39.2051C844.746 39.0797 844.867 39 845.001 39C845.134 39 845.255 39.0797 845.314 39.2051Z" fill="#F04037"/>
<path fill-rule="evenodd" clip-rule="evenodd" d="M865.314 39.2051L867.597 44.0569L872.7 44.8351C872.832 44.8557 872.942 44.9527 872.983 45.0855C873.024 45.2183 872.99 45.3641 872.894 45.4617L869.202 49.2374L870.074 54.57C870.097 54.7075 870.043 54.8466 869.935 54.9288C869.827 55.011 869.684 55.0219 869.565 54.9569L865.001 52.4397L860.436 54.9576C860.317 55.0228 860.174 55.0121 860.066 54.93C859.958 54.8478 859.904 54.7086 859.927 54.571L860.799 49.2374L857.106 45.4617C857.01 45.3641 856.976 45.2183 857.017 45.0855C857.058 44.9527 857.168 44.8557 857.3 44.8351L862.403 44.0569L864.687 39.2051C864.746 39.0797 864.867 39 865.001 39C865.134 39 865.255 39.0797 865.314 39.2051Z" fill="#F04037"/>
<path fill-rule="evenodd" clip-rule="evenodd" d="M885.314 39.2051L887.597 44.0569L892.7 44.8351C892.832 44.8557 892.942 44.9527 892.983 45.0855C893.024 45.2183 892.99 45.3641 892.894 45.4617L889.202 49.2374L890.074 54.57C890.097 54.7075 890.043 54.8466 889.935 54.9288C889.827 55.011 889.684 55.0219 889.565 54.9569L885.001 52.4397L880.436 54.9576C880.317 55.0228 880.174 55.0121 880.066 54.93C879.958 54.8478 879.904 54.7086 879.927 54.571L880.799 49.2374L877.106 45.4617C877.01 45.3641 876.976 45.2183 877.017 45.0855C877.058 44.9527 877.168 44.8557 877.3 44.8351L882.403 44.0569L884.687 39.2051C884.746 39.0797 884.867 39 885.001 39C885.134 39 885.255 39.0797 885.314 39.2051Z" fill="#F04037"/>
</g>
<g clip-path="url(#clip3_0_3849)">
<g filter="url(#filter3_d_0_3849)">
<rect y="459" width="350" height="403" rx="10" fill="white"/>
<rect y="459" width="350" height="403" rx="10" stroke="#EAE9F2"/>
</g>
<path fill-rule="evenodd" clip-rule="evenodd" d="M58.5 821C70.3741 821 80 811.374 80 799.5C80 787.626 70.3741 778 58.5 778C46.6259 778 37 787.626 37 799.5C37 811.374 46.6259 821 58.5 821Z" fill="#696871"/>
<path fill-rule="evenodd" clip-rule="evenodd" d="M45.3136 498.205L47.5966 503.057L52.7 503.835C52.8321 503.856 52.9417 503.953 52.9829 504.085C53.024 504.218 52.9896 504.364 52.8941 504.462L49.202 508.237L50.0737 513.57C50.0966 513.707 50.0428 513.847 49.9348 513.929C49.8269 514.011 49.6836 514.022 49.5655 513.957L45.0005 511.44L40.4356 513.958C40.3175 514.023 40.1742 514.012 40.0662 513.93C39.9582 513.848 39.9043 513.709 39.9274 513.571L40.7991 508.237L37.1059 504.462C37.0103 504.364 36.976 504.218 37.0171 504.085C37.0583 503.953 37.1679 503.856 37.3 503.835L42.4034 503.057L44.6874 498.205C44.7456 498.08 44.8672 498 45.0005 498C45.1339 498 45.2555 498.08 45.3136 498.205Z" fill="#F04037"/>
<path fill-rule="evenodd" clip-rule="evenodd" d="M65.3136 498.205L67.5966 503.057L72.7 503.835C72.8321 503.856 72.9417 503.953 72.9829 504.085C73.024 504.218 72.9896 504.364 72.8941 504.462L69.202 508.237L70.0737 513.57C70.0966 513.707 70.0428 513.847 69.9348 513.929C69.8269 514.011 69.6836 514.022 69.5655 513.957L65.0005 511.44L60.4356 513.958C60.3175 514.023 60.1742 514.012 60.0662 513.93C59.9582 513.848 59.9043 513.709 59.9274 513.571L60.7991 508.237L57.1059 504.462C57.0103 504.364 56.976 504.218 57.0171 504.085C57.0583 503.953 57.1679 503.856 57.3 503.835L62.4034 503.057L64.6874 498.205C64.7456 498.08 64.8672 498 65.0005 498C65.1339 498 65.2555 498.08 65.3136 498.205Z" fill="#F04037"/>
<path fill-rule="evenodd" clip-rule="evenodd" d="M85.3136 498.205L87.5966 503.057L92.7 503.835C92.8321 503.856 92.9417 503.953 92.9829 504.085C93.024 504.218 92.9896 504.364 92.8941 504.462L89.202 508.237L90.0737 513.57C90.0966 513.707 90.0428 513.847 89.9348 513.929C89.8269 514.011 89.6836 514.022 89.5655 513.957L85.0005 511.44L80.4356 513.958C80.3175 514.023 80.1742 514.012 80.0662 513.93C79.9582 513.848 79.9043 513.709 79.9274 513.571L80.7991 508.237L77.1059 504.462C77.0103 504.364 76.976 504.218 77.0171 504.085C77.0583 503.953 77.1679 503.856 77.3 503.835L82.4034 503.057L84.6874 498.205C84.7456 498.08 84.8672 498 85.0005 498C85.1339 498 85.2555 498.08 85.3136 498.205Z" fill="#F04037"/>
<path fill-rule="evenodd" clip-rule="evenodd" d="M105.314 498.205L107.597 503.057L112.7 503.835C112.832 503.856 112.942 503.953 112.983 504.085C113.024 504.218 112.99 504.364 112.894 504.462L109.202 508.237L110.074 513.57C110.097 513.707 110.043 513.847 109.935 513.929C109.827 514.011 109.684 514.022 109.565 513.957L105.001 511.44L100.436 513.958C100.317 514.023 100.174 514.012 100.066 513.93C99.9582 513.848 99.9043 513.709 99.9274 513.571L100.799 508.237L97.1059 504.462C97.0103 504.364 96.976 504.218 97.0171 504.085C97.0583 503.953 97.1679 503.856 97.3 503.835L102.403 503.057L104.687 498.205C104.746 498.08 104.867 498 105.001 498C105.134 498 105.255 498.08 105.314 498.205Z" fill="#F04037"/>
<path fill-rule="evenodd" clip-rule="evenodd" d="M125.314 498.205L127.597 503.057L132.7 503.835C132.832 503.856 132.942 503.953 132.983 504.085C133.024 504.218 132.99 504.364 132.894 504.462L129.202 508.237L130.074 513.57C130.097 513.707 130.043 513.847 129.935 513.929C129.827 514.011 129.684 514.022 129.565 513.957L125.001 511.44L120.436 513.958C120.317 514.023 120.174 514.012 120.066 513.93C119.958 513.848 119.904 513.709 119.927 513.571L120.799 508.237L117.106 504.462C117.01 504.364 116.976 504.218 117.017 504.085C117.058 503.953 117.168 503.856 117.3 503.835L122.403 503.057L124.687 498.205C124.746 498.08 124.867 498 125.001 498C125.134 498 125.255 498.08 125.314 498.205Z" fill="#F04037"/>
</g>
<g clip-path="url(#clip4_0_3849)">
<g filter="url(#filter4_d_0_3849)">
<rect x="381" y="459" width="350" height="403" rx="10" fill="white"/>
<rect x="381" y="459" width="350" height="403" rx="10" stroke="#EAE9F2"/>
</g>
<path fill-rule="evenodd" clip-rule="evenodd" d="M439.5 821C451.374 821 461 811.374 461 799.5C461 787.626 451.374 778 439.5 778C427.626 778 418 787.626 418 799.5C418 811.374 427.626 821 439.5 821Z" fill="#696871"/>
<path fill-rule="evenodd" clip-rule="evenodd" d="M426.314 498.205L428.597 503.057L433.7 503.835C433.832 503.856 433.942 503.953 433.983 504.085C434.024 504.218 433.99 504.364 433.894 504.462L430.202 508.237L431.074 513.57C431.097 513.707 431.043 513.847 430.935 513.929C430.827 514.011 430.684 514.022 430.565 513.957L426.001 511.44L421.436 513.958C421.317 514.023 421.174 514.012 421.066 513.93C420.958 513.848 420.904 513.709 420.927 513.571L421.799 508.237L418.106 504.462C418.01 504.364 417.976 504.218 418.017 504.085C418.058 503.953 418.168 503.856 418.3 503.835L423.403 503.057L425.687 498.205C425.746 498.08 425.867 498 426.001 498C426.134 498 426.255 498.08 426.314 498.205Z" fill="#F04037"/>
<path fill-rule="evenodd" clip-rule="evenodd" d="M446.314 498.205L448.597 503.057L453.7 503.835C453.832 503.856 453.942 503.953 453.983 504.085C454.024 504.218 453.99 504.364 453.894 504.462L450.202 508.237L451.074 513.57C451.097 513.707 451.043 513.847 450.935 513.929C450.827 514.011 450.684 514.022 450.565 513.957L446.001 511.44L441.436 513.958C441.317 514.023 441.174 514.012 441.066 513.93C440.958 513.848 440.904 513.709 440.927 513.571L441.799 508.237L438.106 504.462C438.01 504.364 437.976 504.218 438.017 504.085C438.058 503.953 438.168 503.856 438.3 503.835L443.403 503.057L445.687 498.205C445.746 498.08 445.867 498 446.001 498C446.134 498 446.255 498.08 446.314 498.205Z" fill="#F04037"/>
<path fill-rule="evenodd" clip-rule="evenodd" d="M466.314 498.205L468.597 503.057L473.7 503.835C473.832 503.856 473.942 503.953 473.983 504.085C474.024 504.218 473.99 504.364 473.894 504.462L470.202 508.237L471.074 513.57C471.097 513.707 471.043 513.847 470.935 513.929C470.827 514.011 470.684 514.022 470.565 513.957L466.001 511.44L461.436 513.958C461.317 514.023 461.174 514.012 461.066 513.93C460.958 513.848 460.904 513.709 460.927 513.571L461.799 508.237L458.106 504.462C458.01 504.364 457.976 504.218 458.017 504.085C458.058 503.953 458.168 503.856 458.3 503.835L463.403 503.057L465.687 498.205C465.746 498.08 465.867 498 466.001 498C466.134 498 466.255 498.08 466.314 498.205Z" fill="#F04037"/>
<path fill-rule="evenodd" clip-rule="evenodd" d="M486.314 498.205L488.597 503.057L493.7 503.835C493.832 503.856 493.942 503.953 493.983 504.085C494.024 504.218 493.99 504.364 493.894 504.462L490.202 508.237L491.074 513.57C491.097 513.707 491.043 513.847 490.935 513.929C490.827 514.011 490.684 514.022 490.565 513.957L486.001 511.44L481.436 513.958C481.317 514.023 481.174 514.012 481.066 513.93C480.958 513.848 480.904 513.709 480.927 513.571L481.799 508.237L478.106 504.462C478.01 504.364 477.976 504.218 478.017 504.085C478.058 503.953 478.168 503.856 478.3 503.835L483.403 503.057L485.687 498.205C485.746 498.08 485.867 498 486.001 498C486.134 498 486.255 498.08 486.314 498.205Z" fill="#F04037"/>
<path fill-rule="evenodd" clip-rule="evenodd" d="M506.314 498.205L508.597 503.057L513.7 503.835C513.832 503.856 513.942 503.953 513.983 504.085C514.024 504.218 513.99 504.364 513.894 504.462L510.202 508.237L511.074 513.57C511.097 513.707 511.043 513.847 510.935 513.929C510.827 514.011 510.684 514.022 510.565 513.957L506.001 511.44L501.436 513.958C501.317 514.023 501.174 514.012 501.066 513.93C500.958 513.848 500.904 513.709 500.927 513.571L501.799 508.237L498.106 504.462C498.01 504.364 497.976 504.218 498.017 504.085C498.058 503.953 498.168 503.856 498.3 503.835L503.403 503.057L505.687 498.205C505.746 498.08 505.867 498 506.001 498C506.134 498 506.255 498.08 506.314 498.205Z" fill="#D8D7E6"/>
</g>
<g clip-path="url(#clip5_0_3849)">
<g filter="url(#filter5_d_0_3849)">
<rect x="760" y="459" width="350" height="403" rx="10" fill="white"/>
<rect x="760" y="459" width="350" height="403" rx="10" stroke="#EAE9F2"/>
</g>
<path fill-rule="evenodd" clip-rule="evenodd" d="M818.5 821C830.374 821 840 811.374 840 799.5C840 787.626 830.374 778 818.5 778C806.626 778 797 787.626 797 799.5C797 811.374 806.626 821 818.5 821Z" fill="#696871"/>
<path fill-rule="evenodd" clip-rule="evenodd" d="M805.314 498.205L807.597 503.057L812.7 503.835C812.832 503.856 812.942 503.953 812.983 504.085C813.024 504.218 812.99 504.364 812.894 504.462L809.202 508.237L810.074 513.57C810.097 513.707 810.043 513.847 809.935 513.929C809.827 514.011 809.684 514.022 809.565 513.957L805.001 511.44L800.436 513.958C800.317 514.023 800.174 514.012 800.066 513.93C799.958 513.848 799.904 513.709 799.927 513.571L800.799 508.237L797.106 504.462C797.01 504.364 796.976 504.218 797.017 504.085C797.058 503.953 797.168 503.856 797.3 503.835L802.403 503.057L804.687 498.205C804.746 498.08 804.867 498 805.001 498C805.134 498 805.255 498.08 805.314 498.205Z" fill="#F04037"/>
<path fill-rule="evenodd" clip-rule="evenodd" d="M825.314 498.205L827.597 503.057L832.7 503.835C832.832 503.856 832.942 503.953 832.983 504.085C833.024 504.218 832.99 504.364 832.894 504.462L829.202 508.237L830.074 513.57C830.097 513.707 830.043 513.847 829.935 513.929C829.827 514.011 829.684 514.022 829.565 513.957L825.001 511.44L820.436 513.958C820.317 514.023 820.174 514.012 820.066 513.93C819.958 513.848 819.904 513.709 819.927 513.571L820.799 508.237L817.106 504.462C817.01 504.364 816.976 504.218 817.017 504.085C817.058 503.953 817.168 503.856 817.3 503.835L822.403 503.057L824.687 498.205C824.746 498.08 824.867 498 825.001 498C825.134 498 825.255 498.08 825.314 498.205Z" fill="#F04037"/>
<path fill-rule="evenodd" clip-rule="evenodd" d="M845.314 498.205L847.597 503.057L852.7 503.835C852.832 503.856 852.942 503.953 852.983 504.085C853.024 504.218 852.99 504.364 852.894 504.462L849.202 508.237L850.074 513.57C850.097 513.707 850.043 513.847 849.935 513.929C849.827 514.011 849.684 514.022 849.565 513.957L845.001 511.44L840.436 513.958C840.317 514.023 840.174 514.012 840.066 513.93C839.958 513.848 839.904 513.709 839.927 513.571L840.799 508.237L837.106 504.462C837.01 504.364 836.976 504.218 837.017 504.085C837.058 503.953 837.168 503.856 837.3 503.835L842.403 503.057L844.687 498.205C844.746 498.08 844.867 498 845.001 498C845.134 498 845.255 498.08 845.314 498.205Z" fill="#F04037"/>
<path fill-rule="evenodd" clip-rule="evenodd" d="M865.314 498.205L867.597 503.057L872.7 503.835C872.832 503.856 872.942 503.953 872.983 504.085C873.024 504.218 872.99 504.364 872.894 504.462L869.202 508.237L870.074 513.57C870.097 513.707 870.043 513.847 869.935 513.929C869.827 514.011 869.684 514.022 869.565 513.957L865.001 511.44L860.436 513.958C860.317 514.023 860.174 514.012 860.066 513.93C859.958 513.848 859.904 513.709 859.927 513.571L860.799 508.237L857.106 504.462C857.01 504.364 856.976 504.218 857.017 504.085C857.058 503.953 857.168 503.856 857.3 503.835L862.403 503.057L864.687 498.205C864.746 498.08 864.867 498 865.001 498C865.134 498 865.255 498.08 865.314 498.205Z" fill="#F04037"/>
<path fill-rule="evenodd" clip-rule="evenodd" d="M885.314 498.205L887.597 503.057L892.7 503.835C892.832 503.856 892.942 503.953 892.983 504.085C893.024 504.218 892.99 504.364 892.894 504.462L889.202 508.237L890.074 513.57C890.097 513.707 890.043 513.847 889.935 513.929C889.827 514.011 889.684 514.022 889.565 513.957L885.001 511.44L880.436 513.958C880.317 514.023 880.174 514.012 880.066 513.93C879.958 513.848 879.904 513.709 879.927 513.571L880.799 508.237L877.106 504.462C877.01 504.364 876.976 504.218 877.017 504.085C877.058 503.953 877.168 503.856 877.3 503.835L882.403 503.057L884.687 498.205C884.746 498.08 884.867 498 885.001 498C885.134 498 885.255 498.08 885.314 498.205Z" fill="#F04037"/>
</g>
<g clip-path="url(#clip6_0_3849)">
<g filter="url(#filter6_d_0_3849)">
<rect y="918" width="350" height="403" rx="10" fill="white"/>
<rect y="918" width="350" height="403" rx="10" stroke="#EAE9F2"/>
</g>
<path fill-rule="evenodd" clip-rule="evenodd" d="M58.5 1280C70.3741 1280 80 1270.37 80 1258.5C80 1246.63 70.3741 1237 58.5 1237C46.6259 1237 37 1246.63 37 1258.5C37 1270.37 46.6259 1280 58.5 1280Z" fill="#696871"/>
<path fill-rule="evenodd" clip-rule="evenodd" d="M45.3136 957.205L47.5966 962.057L52.7 962.835C52.8321 962.856 52.9417 962.953 52.9829 963.085C53.024 963.218 52.9896 963.364 52.8941 963.462L49.202 967.237L50.0737 972.57C50.0966 972.707 50.0428 972.847 49.9348 972.929C49.8269 973.011 49.6836 973.022 49.5655 972.957L45.0005 970.44L40.4356 972.958C40.3175 973.023 40.1742 973.012 40.0662 972.93C39.9582 972.848 39.9043 972.709 39.9274 972.571L40.7991 967.237L37.1059 963.462C37.0103 963.364 36.976 963.218 37.0171 963.085C37.0583 962.953 37.1679 962.856 37.3 962.835L42.4034 962.057L44.6874 957.205C44.7456 957.08 44.8672 957 45.0005 957C45.1339 957 45.2555 957.08 45.3136 957.205Z" fill="#F04037"/>
<path fill-rule="evenodd" clip-rule="evenodd" d="M65.3136 957.205L67.5966 962.057L72.7 962.835C72.8321 962.856 72.9417 962.953 72.9829 963.085C73.024 963.218 72.9896 963.364 72.8941 963.462L69.202 967.237L70.0737 972.57C70.0966 972.707 70.0428 972.847 69.9348 972.929C69.8269 973.011 69.6836 973.022 69.5655 972.957L65.0005 970.44L60.4356 972.958C60.3175 973.023 60.1742 973.012 60.0662 972.93C59.9582 972.848 59.9043 972.709 59.9274 972.571L60.7991 967.237L57.1059 963.462C57.0103 963.364 56.976 963.218 57.0171 963.085C57.0583 962.953 57.1679 962.856 57.3 962.835L62.4034 962.057L64.6874 957.205C64.7456 957.08 64.8672 957 65.0005 957C65.1339 957 65.2555 957.08 65.3136 957.205Z" fill="#F04037"/>
<path fill-rule="evenodd" clip-rule="evenodd" d="M85.3136 957.205L87.5966 962.057L92.7 962.835C92.8321 962.856 92.9417 962.953 92.9829 963.085C93.024 963.218 92.9896 963.364 92.8941 963.462L89.202 967.237L90.0737 972.57C90.0966 972.707 90.0428 972.847 89.9348 972.929C89.8269 973.011 89.6836 973.022 89.5655 972.957L85.0005 970.44L80.4356 972.958C80.3175 973.023 80.1742 973.012 80.0662 972.93C79.9582 972.848 79.9043 972.709 79.9274 972.571L80.7991 967.237L77.1059 963.462C77.0103 963.364 76.976 963.218 77.0171 963.085C77.0583 962.953 77.1679 962.856 77.3 962.835L82.4034 962.057L84.6874 957.205C84.7456 957.08 84.8672 957 85.0005 957C85.1339 957 85.2555 957.08 85.3136 957.205Z" fill="#F04037"/>
<path fill-rule="evenodd" clip-rule="evenodd" d="M105.314 957.205L107.597 962.057L112.7 962.835C112.832 962.856 112.942 962.953 112.983 963.085C113.024 963.218 112.99 963.364 112.894 963.462L109.202 967.237L110.074 972.57C110.097 972.707 110.043 972.847 109.935 972.929C109.827 973.011 109.684 973.022 109.565 972.957L105.001 970.44L100.436 972.958C100.317 973.023 100.174 973.012 100.066 972.93C99.9582 972.848 99.9043 972.709 99.9274 972.571L100.799 967.237L97.1059 963.462C97.0103 963.364 96.976 963.218 97.0171 963.085C97.0583 962.953 97.1679 962.856 97.3 962.835L102.403 962.057L104.687 957.205C104.746 957.08 104.867 957 105.001 957C105.134 957 105.255 957.08 105.314 957.205Z" fill="#F04037"/>
<path fill-rule="evenodd" clip-rule="evenodd" d="M125.314 957.205L127.597 962.057L132.7 962.835C132.832 962.856 132.942 962.953 132.983 963.085C133.024 963.218 132.99 963.364 132.894 963.462L129.202 967.237L130.074 972.57C130.097 972.707 130.043 972.847 129.935 972.929C129.827 973.011 129.684 973.022 129.565 972.957L125.001 970.44L120.436 972.958C120.317 973.023 120.174 973.012 120.066 972.93C119.958 972.848 119.904 972.709 119.927 972.571L120.799 967.237L117.106 963.462C117.01 963.364 116.976 963.218 117.017 963.085C117.058 962.953 117.168 962.856 117.3 962.835L122.403 962.057L124.687 957.205C124.746 957.08 124.867 957 125.001 957C125.134 957 125.255 957.08 125.314 957.205Z" fill="#F04037"/>
</g>
<g clip-path="url(#clip7_0_3849)">
<g filter="url(#filter7_d_0_3849)">
<rect x="381" y="918" width="350" height="403" rx="10" fill="white"/>
<rect x="381" y="918" width="350" height="403" rx="10" stroke="#EAE9F2"/>
</g>
<path fill-rule="evenodd" clip-rule="evenodd" d="M439.5 1280C451.374 1280 461 1270.37 461 1258.5C461 1246.63 451.374 1237 439.5 1237C427.626 1237 418 1246.63 418 1258.5C418 1270.37 427.626 1280 439.5 1280Z" fill="#696871"/>
<path fill-rule="evenodd" clip-rule="evenodd" d="M426.314 957.205L428.597 962.057L433.7 962.835C433.832 962.856 433.942 962.953 433.983 963.085C434.024 963.218 433.99 963.364 433.894 963.462L430.202 967.237L431.074 972.57C431.097 972.707 431.043 972.847 430.935 972.929C430.827 973.011 430.684 973.022 430.565 972.957L426.001 970.44L421.436 972.958C421.317 973.023 421.174 973.012 421.066 972.93C420.958 972.848 420.904 972.709 420.927 972.571L421.799 967.237L418.106 963.462C418.01 963.364 417.976 963.218 418.017 963.085C418.058 962.953 418.168 962.856 418.3 962.835L423.403 962.057L425.687 957.205C425.746 957.08 425.867 957 426.001 957C426.134 957 426.255 957.08 426.314 957.205Z" fill="#F04037"/>
<path fill-rule="evenodd" clip-rule="evenodd" d="M446.314 957.205L448.597 962.057L453.7 962.835C453.832 962.856 453.942 962.953 453.983 963.085C454.024 963.218 453.99 963.364 453.894 963.462L450.202 967.237L451.074 972.57C451.097 972.707 451.043 972.847 450.935 972.929C450.827 973.011 450.684 973.022 450.565 972.957L446.001 970.44L441.436 972.958C441.317 973.023 441.174 973.012 441.066 972.93C440.958 972.848 440.904 972.709 440.927 972.571L441.799 967.237L438.106 963.462C438.01 963.364 437.976 963.218 438.017 963.085C438.058 962.953 438.168 962.856 438.3 962.835L443.403 962.057L445.687 957.205C445.746 957.08 445.867 957 446.001 957C446.134 957 446.255 957.08 446.314 957.205Z" fill="#F04037"/>
<path fill-rule="evenodd" clip-rule="evenodd" d="M466.314 957.205L468.597 962.057L473.7 962.835C473.832 962.856 473.942 962.953 473.983 963.085C474.024 963.218 473.99 963.364 473.894 963.462L470.202 967.237L471.074 972.57C471.097 972.707 471.043 972.847 470.935 972.929C470.827 973.011 470.684 973.022 470.565 972.957L466.001 970.44L461.436 972.958C461.317 973.023 461.174 973.012 461.066 972.93C460.958 972.848 460.904 972.709 460.927 972.571L461.799 967.237L458.106 963.462C458.01 963.364 457.976 963.218 458.017 963.085C458.058 962.953 458.168 962.856 458.3 962.835L463.403 962.057L465.687 957.205C465.746 957.08 465.867 957 466.001 957C466.134 957 466.255 957.08 466.314 957.205Z" fill="#F04037"/>
<path fill-rule="evenodd" clip-rule="evenodd" d="M486.314 957.205L488.597 962.057L493.7 962.835C493.832 962.856 493.942 962.953 493.983 963.085C494.024 963.218 493.99 963.364 493.894 963.462L490.202 967.237L491.074 972.57C491.097 972.707 491.043 972.847 490.935 972.929C490.827 973.011 490.684 973.022 490.565 972.957L486.001 970.44L481.436 972.958C481.317 973.023 481.174 973.012 481.066 972.93C480.958 972.848 480.904 972.709 480.927 972.571L481.799 967.237L478.106 963.462C478.01 963.364 477.976 963.218 478.017 963.085C478.058 962.953 478.168 962.856 478.3 962.835L483.403 962.057L485.687 957.205C485.746 957.08 485.867 957 486.001 957C486.134 957 486.255 957.08 486.314 957.205Z" fill="#F04037"/>
<path fill-rule="evenodd" clip-rule="evenodd" d="M506.314 957.205L508.597 962.057L513.7 962.835C513.832 962.856 513.942 962.953 513.983 963.085C514.024 963.218 513.99 963.364 513.894 963.462L510.202 967.237L511.074 972.57C511.097 972.707 511.043 972.847 510.935 972.929C510.827 973.011 510.684 973.022 510.565 972.957L506.001 970.44L501.436 972.958C501.317 973.023 501.174 973.012 501.066 972.93C500.958 972.848 500.904 972.709 500.927 972.571L501.799 967.237L498.106 963.462C498.01 963.364 497.976 963.218 498.017 963.085C498.058 962.953 498.168 962.856 498.3 962.835L503.403 962.057L505.687 957.205C505.746 957.08 505.867 957 506.001 957C506.134 957 506.255 957.08 506.314 957.205Z" fill="#D8D7E6"/>
</g>
<g clip-path="url(#clip8_0_3849)">
<g filter="url(#filter8_d_0_3849)">
<rect x="760" y="918" width="350" height="403" rx="10" fill="white"/>
<rect x="760" y="918" width="350" height="403" rx="10" stroke="#EAE9F2"/>
</g>
<path fill-rule="evenodd" clip-rule="evenodd" d="M818.5 1280C830.374 1280 840 1270.37 840 1258.5C840 1246.63 830.374 1237 818.5 1237C806.626 1237 797 1246.63 797 1258.5C797 1270.37 806.626 1280 818.5 1280Z" fill="#696871"/>
<path fill-rule="evenodd" clip-rule="evenodd" d="M805.314 957.205L807.597 962.057L812.7 962.835C812.832 962.856 812.942 962.953 812.983 963.085C813.024 963.218 812.99 963.364 812.894 963.462L809.202 967.237L810.074 972.57C810.097 972.707 810.043 972.847 809.935 972.929C809.827 973.011 809.684 973.022 809.565 972.957L805.001 970.44L800.436 972.958C800.317 973.023 800.174 973.012 800.066 972.93C799.958 972.848 799.904 972.709 799.927 972.571L800.799 967.237L797.106 963.462C797.01 963.364 796.976 963.218 797.017 963.085C797.058 962.953 797.168 962.856 797.3 962.835L802.403 962.057L804.687 957.205C804.746 957.08 804.867 957 805.001 957C805.134 957 805.255 957.08 805.314 957.205Z" fill="#F04037"/>
<path fill-rule="evenodd" clip-rule="evenodd" d="M825.314 957.205L827.597 962.057L832.7 962.835C832.832 962.856 832.942 962.953 832.983 963.085C833.024 963.218 832.99 963.364 832.894 963.462L829.202 967.237L830.074 972.57C830.097 972.707 830.043 972.847 829.935 972.929C829.827 973.011 829.684 973.022 829.565 972.957L825.001 970.44L820.436 972.958C820.317 973.023 820.174 973.012 820.066 972.93C819.958 972.848 819.904 972.709 819.927 972.571L820.799 967.237L817.106 963.462C817.01 963.364 816.976 963.218 817.017 963.085C817.058 962.953 817.168 962.856 817.3 962.835L822.403 962.057L824.687 957.205C824.746 957.08 824.867 957 825.001 957C825.134 957 825.255 957.08 825.314 957.205Z" fill="#F04037"/>
<path fill-rule="evenodd" clip-rule="evenodd" d="M845.314 957.205L847.597 962.057L852.7 962.835C852.832 962.856 852.942 962.953 852.983 963.085C853.024 963.218 852.99 963.364 852.894 963.462L849.202 967.237L850.074 972.57C850.097 972.707 850.043 972.847 849.935 972.929C849.827 973.011 849.684 973.022 849.565 972.957L845.001 970.44L840.436 972.958C840.317 973.023 840.174 973.012 840.066 972.93C839.958 972.848 839.904 972.709 839.927 972.571L840.799 967.237L837.106 963.462C837.01 963.364 836.976 963.218 837.017 963.085C837.058 962.953 837.168 962.856 837.3 962.835L842.403 962.057L844.687 957.205C844.746 957.08 844.867 957 845.001 957C845.134 957 845.255 957.08 845.314 957.205Z" fill="#F04037"/>
<path fill-rule="evenodd" clip-rule="evenodd" d="M865.314 957.205L867.597 962.057L872.7 962.835C872.832 962.856 872.942 962.953 872.983 963.085C873.024 963.218 872.99 963.364 872.894 963.462L869.202 967.237L870.074 972.57C870.097 972.707 870.043 972.847 869.935 972.929C869.827 973.011 869.684 973.022 869.565 972.957L865.001 970.44L860.436 972.958C860.317 973.023 860.174 973.012 860.066 972.93C859.958 972.848 859.904 972.709 859.927 972.571L860.799 967.237L857.106 963.462C857.01 963.364 856.976 963.218 857.017 963.085C857.058 962.953 857.168 962.856 857.3 962.835L862.403 962.057L864.687 957.205C864.746 957.08 864.867 957 865.001 957C865.134 957 865.255 957.08 865.314 957.205Z" fill="#F04037"/>
<path fill-rule="evenodd" clip-rule="evenodd" d="M885.314 957.205L887.597 962.057L892.7 962.835C892.832 962.856 892.942 962.953 892.983 963.085C893.024 963.218 892.99 963.364 892.894 963.462L889.202 967.237L890.074 972.57C890.097 972.707 890.043 972.847 889.935 972.929C889.827 973.011 889.684 973.022 889.565 972.957L885.001 970.44L880.436 972.958C880.317 973.023 880.174 973.012 880.066 972.93C879.958 972.848 879.904 972.709 879.927 972.571L880.799 967.237L877.106 963.462C877.01 963.364 876.976 963.218 877.017 963.085C877.058 962.953 877.168 962.856 877.3 962.835L882.403 962.057L884.687 957.205C884.746 957.08 884.867 957 885.001 957C885.134 957 885.255 957.08 885.314 957.205Z" fill="#F04037"/>
</g>
<defs>
<filter id="filter0_d_0_3849" x="-4.5" y="-2.5" width="359" height="412" filterUnits="userSpaceOnUse" color-interpolation-filters="sRGB">
<feFlood flood-opacity="0" result="BackgroundImageFix"/>
<feColorMatrix in="SourceAlpha" type="matrix" values="0 0 0 0 0 0 0 0 0 0 0 0 0 0 0 0 0 0 127 0" result="hardAlpha"/>
<feOffset dy="2"/>
<feGaussianBlur stdDeviation="2"/>
<feColorMatrix type="matrix" values="0 0 0 0 0 0 0 0 0 0 0 0 0 0 0 0 0 0 0.036062 0"/>
<feBlend mode="normal" in2="BackgroundImageFix" result="effect1_dropShadow_0_3849"/>
<feBlend mode="normal" in="SourceGraphic" in2="effect1_dropShadow_0_3849" result="shape"/>
</filter>
<filter id="filter1_d_0_3849" x="376.5" y="-2.5" width="359" height="412" filterUnits="userSpaceOnUse" color-interpolation-filters="sRGB">
<feFlood flood-opacity="0" result="BackgroundImageFix"/>
<feColorMatrix in="SourceAlpha" type="matrix" values="0 0 0 0 0 0 0 0 0 0 0 0 0 0 0 0 0 0 127 0" result="hardAlpha"/>
<feOffset dy="2"/>
<feGaussianBlur stdDeviation="2"/>
<feColorMatrix type="matrix" values="0 0 0 0 0 0 0 0 0 0 0 0 0 0 0 0 0 0 0.036062 0"/>
<feBlend mode="normal" in2="BackgroundImageFix" result="effect1_dropShadow_0_3849"/>
<feBlend mode="normal" in="SourceGraphic" in2="effect1_dropShadow_0_3849" result="shape"/>
</filter>
<filter id="filter2_d_0_3849" x="755.5" y="-2.5" width="359" height="412" filterUnits="userSpaceOnUse" color-interpolation-filters="sRGB">
<feFlood flood-opacity="0" result="BackgroundImageFix"/>
<feColorMatrix in="SourceAlpha" type="matrix" values="0 0 0 0 0 0 0 0 0 0 0 0 0 0 0 0 0 0 127 0" result="hardAlpha"/>
<feOffset dy="2"/>
<feGaussianBlur stdDeviation="2"/>
<feColorMatrix type="matrix" values="0 0 0 0 0 0 0 0 0 0 0 0 0 0 0 0 0 0 0.036062 0"/>
<feBlend mode="normal" in2="BackgroundImageFix" result="effect1_dropShadow_0_3849"/>
<feBlend mode="normal" in="SourceGraphic" in2="effect1_dropShadow_0_3849" result="shape"/>
</filter>
<filter id="filter3_d_0_3849" x="-4.5" y="456.5" width="359" height="412" filterUnits="userSpaceOnUse" color-interpolation-filters="sRGB">
<feFlood flood-opacity="0" result="BackgroundImageFix"/>
<feColorMatrix in="SourceAlpha" type="matrix" values="0 0 0 0 0 0 0 0 0 0 0 0 0 0 0 0 0 0 127 0" result="hardAlpha"/>
<feOffset dy="2"/>
<feGaussianBlur stdDeviation="2"/>
<feColorMatrix type="matrix" values="0 0 0 0 0 0 0 0 0 0 0 0 0 0 0 0 0 0 0.036062 0"/>
<feBlend mode="normal" in2="BackgroundImageFix" result="effect1_dropShadow_0_3849"/>
<feBlend mode="normal" in="SourceGraphic" in2="effect1_dropShadow_0_3849" result="shape"/>
</filter>
<filter id="filter4_d_0_3849" x="376.5" y="456.5" width="359" height="412" filterUnits="userSpaceOnUse" color-interpolation-filters="sRGB">
<feFlood flood-opacity="0" result="BackgroundImageFix"/>
<feColorMatrix in="SourceAlpha" type="matrix" values="0 0 0 0 0 0 0 0 0 0 0 0 0 0 0 0 0 0 127 0" result="hardAlpha"/>
<feOffset dy="2"/>
<feGaussianBlur stdDeviation="2"/>
<feColorMatrix type="matrix" values="0 0 0 0 0 0 0 0 0 0 0 0 0 0 0 0 0 0 0.036062 0"/>
<feBlend mode="normal" in2="BackgroundImageFix" result="effect1_dropShadow_0_3849"/>
<feBlend mode="normal" in="SourceGraphic" in2="effect1_dropShadow_0_3849" result="shape"/>
</filter>
<filter id="filter5_d_0_3849" x="755.5" y="456.5" width="359" height="412" filterUnits="userSpaceOnUse" color-interpolation-filters="sRGB">
<feFlood flood-opacity="0" result="BackgroundImageFix"/>
<feColorMatrix in="SourceAlpha" type="matrix" values="0 0 0 0 0 0 0 0 0 0 0 0 0 0 0 0 0 0 127 0" result="hardAlpha"/>
<feOffset dy="2"/>
<feGaussianBlur stdDeviation="2"/>
<feColorMatrix type="matrix" values="0 0 0 0 0 0 0 0 0 0 0 0 0 0 0 0 0 0 0.036062 0"/>
<feBlend mode="normal" in2="BackgroundImageFix" result="effect1_dropShadow_0_3849"/>
<feBlend mode="normal" in="SourceGraphic" in2="effect1_dropShadow_0_3849" result="shape"/>
</filter>
<filter id="filter6_d_0_3849" x="-4.5" y="915.5" width="359" height="412" filterUnits="userSpaceOnUse" color-interpolation-filters="sRGB">
<feFlood flood-opacity="0" result="BackgroundImageFix"/>
<feColorMatrix in="SourceAlpha" type="matrix" values="0 0 0 0 0 0 0 0 0 0 0 0 0 0 0 0 0 0 127 0" result="hardAlpha"/>
<feOffset dy="2"/>
<feGaussianBlur stdDeviation="2"/>
<feColorMatrix type="matrix" values="0 0 0 0 0 0 0 0 0 0 0 0 0 0 0 0 0 0 0.036062 0"/>
<feBlend mode="normal" in2="BackgroundImageFix" result="effect1_dropShadow_0_3849"/>
<feBlend mode="normal" in="SourceGraphic" in2="effect1_dropShadow_0_3849" result="shape"/>
</filter>
<filter id="filter7_d_0_3849" x="376.5" y="915.5" width="359" height="412" filterUnits="userSpaceOnUse" color-interpolation-filters="sRGB">
<feFlood flood-opacity="0" result="BackgroundImageFix"/>
<feColorMatrix in="SourceAlpha" type="matrix" values="0 0 0 0 0 0 0 0 0 0 0 0 0 0 0 0 0 0 127 0" result="hardAlpha"/>
<feOffset dy="2"/>
<feGaussianBlur stdDeviation="2"/>
<feColorMatrix type="matrix" values="0 0 0 0 0 0 0 0 0 0 0 0 0 0 0 0 0 0 0.036062 0"/>
<feBlend mode="normal" in2="BackgroundImageFix" result="effect1_dropShadow_0_3849"/>
<feBlend mode="normal" in="SourceGraphic" in2="effect1_dropShadow_0_3849" result="shape"/>
</filter>
<filter id="filter8_d_0_3849" x="755.5" y="915.5" width="359" height="412" filterUnits="userSpaceOnUse" color-interpolation-filters="sRGB">
<feFlood flood-opacity="0" result="BackgroundImageFix"/>
<feColorMatrix in="SourceAlpha" type="matrix" values="0 0 0 0 0 0 0 0 0 0 0 0 0 0 0 0 0 0 127 0" result="hardAlpha"/>
<feOffset dy="2"/>
<feGaussianBlur stdDeviation="2"/>
<feColorMatrix type="matrix" values="0 0 0 0 0 0 0 0 0 0 0 0 0 0 0 0 0 0 0.036062 0"/>
<feBlend mode="normal" in2="BackgroundImageFix" result="effect1_dropShadow_0_3849"/>
<feBlend mode="normal" in="SourceGraphic" in2="effect1_dropShadow_0_3849" result="shape"/>
</filter>
<clipPath id="clip0_0_3849">
<rect width="350" height="403" fill="white"/>
</clipPath>
<clipPath id="clip1_0_3849">
<rect width="350" height="403" fill="white" transform="translate(381)"/>
</clipPath>
<clipPath id="clip2_0_3849">
<rect width="350" height="403" fill="white" transform="translate(760)"/>
</clipPath>
<clipPath id="clip3_0_3849">
<rect width="350" height="403" fill="white" transform="translate(0 459)"/>
</clipPath>
<clipPath id="clip4_0_3849">
<rect width="350" height="403" fill="white" transform="translate(381 459)"/>
</clipPath>
<clipPath id="clip5_0_3849">
<rect width="350" height="403" fill="white" transform="translate(760 459)"/>
</clipPath>
<clipPath id="clip6_0_3849">
<rect width="350" height="403" fill="white" transform="translate(0 918)"/>
</clipPath>
<clipPath id="clip7_0_3849">
<rect width="350" height="403" fill="white" transform="translate(381 918)"/>
</clipPath>
<clipPath id="clip8_0_3849">
<rect width="350" height="403" fill="white" transform="translate(760 918)"/>
</clipPath>
</defs>
</svg>
