<svg width="50" height="46" viewBox="0 0 50 46" fill="none" xmlns="http://www.w3.org/2000/svg">
<path fill-rule="evenodd" clip-rule="evenodd" d="M45.4545 16.1C47.9659 16.1 50 18.1585 50 20.7L49.9773 20.8725L50 20.8955V25.3C50 25.8865 49.875 26.45 49.6705 26.979L42.8182 43.194C42.1364 44.8385 40.5227 46 38.6364 46H18.1818C15.6705 46 13.6364 43.9415 13.6364 41.4V18.4C13.6364 17.135 14.1477 15.985 14.9659 15.1455L29.9318 0L32.3523 2.4265C32.9659 3.0475 33.3523 3.91 33.3523 4.8645C33.3523 5.1175 33.3182 5.359 33.2727 5.589L31.1023 16.1H45.4545ZM9.09091 46H0V18.4H9.09091V46Z" fill="white"/>
</svg>
