<svg width="99" height="19" viewBox="0 0 99 19" fill="none" xmlns="http://www.w3.org/2000/svg">
<path fill-rule="evenodd" clip-rule="evenodd" d="M12.7994 11.0024L17.7376 12.4825C17.4059 13.8557 16.8834 15.0028 16.1703 15.9238C15.4571 16.8448 14.5719 17.5396 13.5146 18.0084C12.4573 18.4771 11.1119 18.7114 9.47827 18.7114C7.49637 18.7114 5.87728 18.4257 4.62097 17.8542C3.36466 17.2827 2.28043 16.2774 1.36825 14.8384C0.45608 13.3994 0 11.5574 0 9.31254C0 6.31935 0.802287 4.019 2.40688 2.41139C4.01148 0.803789 6.28152 0 9.21706 0C11.5141 0 13.3197 0.460483 14.6341 1.38146C15.9485 2.30244 16.9249 3.71678 17.5634 5.62453L12.5879 6.7223C12.4138 6.17135 12.2314 5.76843 12.0406 5.51352C11.7255 5.08592 11.3399 4.757 10.8838 4.52676C10.4278 4.29651 9.91778 4.18139 9.35389 4.18139C8.07684 4.18139 7.09834 4.69121 6.41836 5.71087C5.90422 6.46739 5.64716 7.6556 5.64716 9.27553C5.64716 11.282 5.95398 12.6572 6.56762 13.4014C7.18127 14.1456 8.04367 14.5177 9.15487 14.5177C10.2329 14.5177 11.0476 14.2176 11.5991 13.6173C12.1505 13.017 12.5506 12.1454 12.7994 11.0024ZM20.8505 9.36188C20.8505 6.40981 21.6797 4.1115 23.3382 2.4669C24.9967 0.822291 27.3062 0 30.2666 0C33.3016 0 35.6401 0.807901 37.282 2.42373C38.9239 4.03955 39.7448 6.30291 39.7448 9.21386C39.7448 11.3272 39.3862 13.0602 38.6689 14.4128C37.9516 15.7655 36.9151 16.8181 35.5592 17.5705C34.2034 18.3229 32.5138 18.6991 30.4905 18.6991C28.4339 18.6991 26.7319 18.3743 25.3844 17.7247C24.0369 17.075 22.9443 16.0472 22.1068 14.641C21.2693 13.2349 20.8505 11.4752 20.8505 9.36188ZM26.4852 9.38655C26.4852 11.2121 26.8273 12.5236 27.5114 13.3212C28.1955 14.1189 29.1264 14.5177 30.3039 14.5177C31.5146 14.5177 32.4516 14.1271 33.115 13.3459C33.7784 12.5647 34.1101 11.1627 34.1101 9.13986C34.1101 7.43769 33.7639 6.19397 33.0715 5.40867C32.3791 4.62337 31.44 4.23073 30.2541 4.23073C29.1181 4.23073 28.2059 4.62954 27.5176 5.42717C26.8293 6.22481 26.4852 7.54459 26.4852 9.38655ZM40.9671 0.308362H46.863L50.9678 13.3212L55.0104 0.308362H60.7322L53.9655 18.3907H47.8581L40.9671 0.308362ZM63.6585 0.308362H78.7591V4.16906H69.3057V7.04299H78.075V10.731H69.3057V14.2957H79.0327V18.3907H63.6585V0.308362ZM81.872 0.308362H99.0001V4.77345H93.2534V18.3907H87.6187V4.77345H81.872V0.308362Z" fill="#9B41BF"/>
</svg>
