<svg width="730" height="1707" viewBox="0 0 730 1707" fill="none" xmlns="http://www.w3.org/2000/svg">
<g clip-path="url(#clip0_0_3324)">
<rect x="0.5" y="0.5" width="349" height="643" rx="7.5" fill="white" stroke="#EAE9F2"/>
<path d="M0 10C0 4.47715 4.47715 0 10 0H340C345.523 0 350 4.47715 350 10V336H0V10Z" fill="#696871"/>
</g>
<g clip-path="url(#clip1_0_3324)">
<rect x="0.5" y="686.5" width="729" height="335" rx="7.5" fill="white" stroke="#EAE9F2"/>
<path d="M0 696C0 690.477 4.47715 686 10 686H350V1022H10C4.47715 1022 0 1017.52 0 1012V696Z" fill="#696871"/>
</g>
<g clip-path="url(#clip2_0_3324)">
<g filter="url(#filter0_d_0_3324)">
<rect x="380" width="350" height="644" rx="8" fill="white"/>
<rect x="380" width="350" height="644" rx="8" stroke="#EAE9F2"/>
</g>
<path d="M380 10C380 4.47715 384.477 0 390 0H720C725.523 0 730 4.47715 730 10V336H380V10Z" fill="#696871"/>
</g>
<g clip-path="url(#clip3_0_3324)">
<rect x="0.5" y="1063.5" width="349" height="643" rx="7.5" fill="white" stroke="#EAE9F2"/>
<path d="M0 1073C0 1067.48 4.47715 1063 10 1063H340C345.523 1063 350 1067.48 350 1073V1399H0V1073Z" fill="#696871"/>
</g>
<g clip-path="url(#clip4_0_3324)">
<rect x="380" y="1063" width="350" height="644" rx="8" fill="white" stroke="#EAE9F2"/>
<path d="M380 1073C380 1067.48 384.477 1063 390 1063H720C725.523 1063 730 1067.48 730 1073V1399H380V1073Z" fill="#696871"/>
</g>
<defs>
<filter id="filter0_d_0_3324" x="325.5" y="-2.5" width="459" height="753" filterUnits="userSpaceOnUse" color-interpolation-filters="sRGB">
<feFlood flood-opacity="0" result="BackgroundImageFix"/>
<feColorMatrix in="SourceAlpha" type="matrix" values="0 0 0 0 0 0 0 0 0 0 0 0 0 0 0 0 0 0 127 0" result="hardAlpha"/>
<feOffset dy="52"/>
<feGaussianBlur stdDeviation="27"/>
<feColorMatrix type="matrix" values="0 0 0 0 0.254026 0 0 0 0 0.241871 0 0 0 0 0.395211 0 0 0 0.296766 0"/>
<feBlend mode="normal" in2="BackgroundImageFix" result="effect1_dropShadow_0_3324"/>
<feBlend mode="normal" in="SourceGraphic" in2="effect1_dropShadow_0_3324" result="shape"/>
</filter>
<clipPath id="clip0_0_3324">
<rect width="350" height="644" fill="white"/>
</clipPath>
<clipPath id="clip1_0_3324">
<rect width="730" height="336" fill="white" transform="translate(0 686)"/>
</clipPath>
<clipPath id="clip2_0_3324">
<rect width="350" height="644" fill="white" transform="translate(380)"/>
</clipPath>
<clipPath id="clip3_0_3324">
<rect width="350" height="644" fill="white" transform="translate(0 1063)"/>
</clipPath>
<clipPath id="clip4_0_3324">
<rect width="350" height="644" fill="white" transform="translate(380 1063)"/>
</clipPath>
</defs>
</svg>
