<svg width="1110" height="1329" viewBox="0 0 1110 1329" fill="none" xmlns="http://www.w3.org/2000/svg">
<g clip-path="url(#clip0_0_3205)">
<rect x="0.5" y="0.5" width="349" height="643" rx="7.5" fill="white" stroke="#EAE9F2"/>
<path d="M0 10C0 4.47715 4.47715 0 10 0H340C345.523 0 350 4.47715 350 10V336H0V10Z" fill="#696871"/>
</g>
<g clip-path="url(#clip1_0_3205)">
<rect x="760.5" y="0.5" width="349" height="643" rx="7.5" fill="white" stroke="#EAE9F2"/>
<path d="M760 10C760 4.47715 764.477 0 770 0H1100C1105.52 0 1110 4.47715 1110 10V336H760V10Z" fill="#696871"/>
</g>
<g clip-path="url(#clip2_0_3205)">
<rect x="0.5" y="685.5" width="349" height="643" rx="7.5" fill="white" stroke="#EAE9F2"/>
<path d="M0 695C0 689.477 4.47715 685 10 685H340C345.523 685 350 689.477 350 695V1021H0V695Z" fill="#696871"/>
</g>
<g clip-path="url(#clip3_0_3205)">
<rect x="380" y="685" width="350" height="644" rx="8" fill="white" stroke="#EAE9F2"/>
<path d="M380 695C380 689.477 384.477 685 390 685H720C725.523 685 730 689.477 730 695V1021H380V695Z" fill="#696871"/>
</g>
<g clip-path="url(#clip4_0_3205)">
<rect x="760.5" y="685.5" width="349" height="643" rx="7.5" fill="white" stroke="#EAE9F2"/>
<path d="M760 695C760 689.477 764.477 685 770 685H1100C1105.52 685 1110 689.477 1110 695V1021H760V695Z" fill="#696871"/>
</g>
<g clip-path="url(#clip5_0_3205)">
<g filter="url(#filter0_d_0_3205)">
<rect x="380" width="350" height="644" rx="8" fill="white"/>
<rect x="380" width="350" height="644" rx="8" stroke="#EAE9F2"/>
</g>
<path d="M380 10C380 4.47715 384.477 0 390 0H720C725.523 0 730 4.47715 730 10V336H380V10Z" fill="#696871"/>
</g>
<defs>
<filter id="filter0_d_0_3205" x="325.5" y="-2.5" width="459" height="753" filterUnits="userSpaceOnUse" color-interpolation-filters="sRGB">
<feFlood flood-opacity="0" result="BackgroundImageFix"/>
<feColorMatrix in="SourceAlpha" type="matrix" values="0 0 0 0 0 0 0 0 0 0 0 0 0 0 0 0 0 0 127 0" result="hardAlpha"/>
<feOffset dy="52"/>
<feGaussianBlur stdDeviation="27"/>
<feColorMatrix type="matrix" values="0 0 0 0 0.254026 0 0 0 0 0.241871 0 0 0 0 0.395211 0 0 0 0.296766 0"/>
<feBlend mode="normal" in2="BackgroundImageFix" result="effect1_dropShadow_0_3205"/>
<feBlend mode="normal" in="SourceGraphic" in2="effect1_dropShadow_0_3205" result="shape"/>
</filter>
<clipPath id="clip0_0_3205">
<rect width="350" height="644" fill="white"/>
</clipPath>
<clipPath id="clip1_0_3205">
<rect width="350" height="644" fill="white" transform="translate(760)"/>
</clipPath>
<clipPath id="clip2_0_3205">
<rect width="350" height="644" fill="white" transform="translate(0 685)"/>
</clipPath>
<clipPath id="clip3_0_3205">
<rect width="350" height="644" fill="white" transform="translate(380 685)"/>
</clipPath>
<clipPath id="clip4_0_3205">
<rect width="350" height="644" fill="white" transform="translate(760 685)"/>
</clipPath>
<clipPath id="clip5_0_3205">
<rect width="350" height="644" fill="white" transform="translate(380)"/>
</clipPath>
</defs>
</svg>
