<svg width="34" height="16" viewBox="0 0 34 16" fill="none" xmlns="http://www.w3.org/2000/svg">
<path d="M27.3478 2.74049C24.9294 2.74049 20.8982 5.65611 16.6312 8.74336C12.8845 11.4542 8.63748 14.5267 6.65217 14.5267C3.79987 14.5267 1.47826 12.2129 1.47826 9.37024C1.47826 6.52755 3.79987 4.21377 6.65217 4.21377C7.15183 4.21377 7.82813 4.40308 8.63896 4.75004L6.7793 8.13932C6.64035 8.39125 6.66252 8.70064 6.834 8.93121C6.97443 9.12126 7.19617 9.22881 7.42752 9.22881C7.47704 9.22881 7.52878 9.22365 7.57904 9.21334L14.1943 7.83509C14.4042 7.79089 14.5853 7.65903 14.6895 7.47119C14.7937 7.28335 14.8107 7.06014 14.736 6.85978L12.376 0.481952C12.2755 0.210869 12.0257 0.0230258 11.7367 0.00239992C11.4528 -0.0211725 11.1727 0.130575 11.0345 0.383979L9.34852 3.45724C8.279 2.988 7.37209 2.74049 6.65217 2.74049C2.98387 2.74049 0 5.7143 0 9.37024C0 13.0262 2.98387 16 6.65217 16C9.11717 16 13.189 13.0542 17.4997 9.93598C21.2064 7.25388 25.4091 4.21377 27.3478 4.21377C30.2001 4.21377 32.5217 6.52755 32.5217 9.37024C32.5217 12.2129 30.2001 14.5267 27.3478 14.5267C26.177 14.5267 24.0498 13.5242 21.3579 11.7032C21.0209 11.4734 20.5611 11.5632 20.3313 11.8991C20.1014 12.2358 20.1901 12.694 20.5279 12.9223C23.5465 14.9643 25.8415 16 27.3478 16C31.0161 16 34 13.0262 34 9.37024C34 5.7143 31.0161 2.74049 27.3478 2.74049Z" fill="#5454D4"/>
</svg>
