<svg width="46" height="60" viewBox="0 0 46 60" fill="none" xmlns="http://www.w3.org/2000/svg">
<path fill-rule="evenodd" clip-rule="evenodd" d="M0 22.6667C0 8.47867 11.6948 0 23 0C34.3052 0 46 8.47867 46 22.6667C46 37.7133 24.8576 58.7227 23.9565 59.6093C23.7035 59.86 23.3585 60 23 60C22.6415 60 22.2965 59.86 22.0435 59.6093C21.1424 58.7227 0 37.7133 0 22.6667ZM14.8824 22.6667C14.8824 27.0787 18.5231 30.6667 23 30.6667C27.4769 30.6667 31.1176 27.0787 31.1176 22.6667C31.1176 18.2547 27.4769 14.6667 23 14.6667C18.5231 14.6667 14.8824 18.2547 14.8824 22.6667Z" fill="#F04037"/>
</svg>
