<svg width="822" height="249" viewBox="0 0 822 249" fill="none" xmlns="http://www.w3.org/2000/svg">
<path fill-rule="evenodd" clip-rule="evenodd" d="M31 62C48.1208 62 62 48.1208 62 31C62 13.8792 48.1208 0 31 0C13.8792 0 0 13.8792 0 31C0 48.1208 13.8792 62 31 62Z" fill="#5454D4" fill-opacity="0.1"/>
<path fill-rule="evenodd" clip-rule="evenodd" d="M31 38C27.134 38 24 34.866 24 31C24 27.134 27.134 24 31 24C34.866 24 38 27.134 38 31C38 34.866 34.866 38 31 38Z" fill="#5454D4"/>
<path fill-rule="evenodd" clip-rule="evenodd" d="M411 62C428.121 62 442 48.1208 442 31C442 13.8792 428.121 0 411 0C393.879 0 380 13.8792 380 31C380 48.1208 393.879 62 411 62Z" fill="#F04037" fill-opacity="0.1"/>
<path fill-rule="evenodd" clip-rule="evenodd" d="M411 38C407.134 38 404 34.866 404 31C404 27.134 407.134 24 411 24C414.866 24 418 27.134 418 31C418 34.866 414.866 38 411 38Z" fill="#F04037"/>
<path fill-rule="evenodd" clip-rule="evenodd" d="M791 62C808.121 62 822 48.1208 822 31C822 13.8792 808.121 0 791 0C773.879 0 760 13.8792 760 31C760 48.1208 773.879 62 791 62Z" fill="#FEDC5A" fill-opacity="0.1"/>
<path fill-rule="evenodd" clip-rule="evenodd" d="M791 38C787.134 38 784 34.866 784 31C784 27.134 787.134 24 791 24C794.866 24 798 27.134 798 31C798 34.866 794.866 38 791 38Z" fill="#FEDC5A"/>
<path fill-rule="evenodd" clip-rule="evenodd" d="M31 249C48.1208 249 62 235.121 62 218C62 200.879 48.1208 187 31 187C13.8792 187 0 200.879 0 218C0 235.121 13.8792 249 31 249Z" fill="#77BF41" fill-opacity="0.1"/>
<path fill-rule="evenodd" clip-rule="evenodd" d="M31 225C27.134 225 24 221.866 24 218C24 214.134 27.134 211 31 211C34.866 211 38 214.134 38 218C38 221.866 34.866 225 31 225Z" fill="#77BF41"/>
<path fill-rule="evenodd" clip-rule="evenodd" d="M411 249C428.121 249 442 235.121 442 218C442 200.879 428.121 187 411 187C393.879 187 380 200.879 380 218C380 235.121 393.879 249 411 249Z" fill="#413E65" fill-opacity="0.1"/>
<path fill-rule="evenodd" clip-rule="evenodd" d="M411 225C407.134 225 404 221.866 404 218C404 214.134 407.134 211 411 211C414.866 211 418 214.134 418 218C418 221.866 414.866 225 411 225Z" fill="#413E65"/>
<path fill-rule="evenodd" clip-rule="evenodd" d="M791 249C808.121 249 822 235.121 822 218C822 200.879 808.121 187 791 187C773.879 187 760 200.879 760 218C760 235.121 773.879 249 791 249Z" fill="#5454D4" fill-opacity="0.1"/>
<path fill-rule="evenodd" clip-rule="evenodd" d="M791 225C787.134 225 784 221.866 784 218C784 214.134 787.134 211 791 211C794.866 211 798 214.134 798 218C798 221.866 794.866 225 791 225Z" fill="#5454D4"/>
</svg>
