<svg width="19" height="22" viewBox="0 0 19 22" fill="none" xmlns="http://www.w3.org/2000/svg">
<path d="M7.52941 13H0.470588C0.210824 13 0 12.776 0 12.5V0.5C0 0.224 0.210824 0 0.470588 0H7.52941C7.78918 0 8 0.224 8 0.5V12.5C8 12.776 7.78918 13 7.52941 13Z" fill="#5454D4"/>
<path d="M7.52941 22H0.470588C0.210824 22 0 21.776 0 21.5V15.5C0 15.224 0.210824 15 0.470588 15H7.52941C7.78918 15 8 15.224 8 15.5V21.5C8 21.776 7.78918 22 7.52941 22Z" fill="#5454D4"/>
<path d="M18.5294 7H11.4706C11.2108 7 11 6.776 11 6.5V0.5C11 0.224 11.2108 0 11.4706 0H18.5294C18.7892 0 19 0.224 19 0.5V6.5C19 6.776 18.7892 7 18.5294 7Z" fill="#5454D4"/>
<path d="M18.5294 22H11.4706C11.2108 22 11 21.776 11 21.5V9.5C11 9.224 11.2108 9 11.4706 9H18.5294C18.7892 9 19 9.224 19 9.5V21.5C19 21.776 18.7892 22 18.5294 22Z" fill="#5454D4"/>
</svg>
