<svg width="1600" height="1789" viewBox="0 0 1600 1789" fill="none" xmlns="http://www.w3.org/2000/svg">
<rect y="662" width="1600" height="476" fill="#F7F7FB"/>
<g clip-path="url(#clip0_0_2578)">
<rect x="245" y="807" width="210" height="196" rx="10" fill="#696871"/>
<rect x="495.5" y="808.5" width="123" height="56" rx="7.5" fill="white" stroke="#EAE9F2"/>
<g clip-path="url(#clip1_0_2578)">
<path fill-rule="evenodd" clip-rule="evenodd" d="M518.823 846.042C518.82 842.458 520.391 839.054 523.121 836.732C525.851 834.41 529.463 833.405 533 833.983C531.445 828.849 526.48 825.529 521.141 826.054C515.803 826.579 511.579 830.803 511.054 836.141C510.529 841.48 513.849 846.445 518.983 848C518.877 847.353 518.824 846.698 518.823 846.042Z" fill="#17E9A9"/>
<path fill-rule="evenodd" clip-rule="evenodd" d="M520 845.854C520 846.575 520.071 847.294 520.213 848L533 835.214C529.809 834.571 526.499 835.394 523.98 837.456C521.462 839.517 520.001 842.6 520 845.854Z" fill="#2758FF"/>
</g>
</g>
<g clip-path="url(#clip2_0_2578)">
<rect x="815" y="807" width="210" height="196" rx="10" fill="#696871"/>
<rect x="1065.5" y="808.5" width="128" height="56" rx="7.5" fill="white" stroke="#EAE9F2"/>
<g clip-path="url(#clip3_0_2578)">
<path fill-rule="evenodd" clip-rule="evenodd" d="M1095.18 827.958C1095.18 831.542 1093.61 834.946 1090.88 837.268C1088.15 839.59 1084.54 840.595 1081 840.017C1082.56 845.151 1087.52 848.471 1092.86 847.946C1098.2 847.421 1102.42 843.197 1102.95 837.859C1103.47 832.52 1100.15 827.555 1095.02 826C1095.12 826.647 1095.18 827.302 1095.18 827.958Z" fill="#F5A623"/>
</g>
</g>
<g clip-path="url(#clip4_0_2578)">
<rect x="245.5" y="0.5" width="349" height="522" rx="7.5" fill="white" stroke="#EAE9F2"/>
<path d="M245 10C245 4.47715 249.477 0 255 0H585C590.523 0 595 4.47715 595 10V336H245V10Z" fill="#696871"/>
<rect x="276" y="251" width="124" height="57" rx="8" fill="white"/>
<g clip-path="url(#clip5_0_2578)">
<path fill-rule="evenodd" clip-rule="evenodd" d="M299.823 289.042C299.82 285.458 301.391 282.054 304.121 279.732C306.851 277.41 310.463 276.405 314 276.983C312.445 271.849 307.48 268.529 302.141 269.054C296.803 269.579 292.579 273.803 292.054 279.141C291.529 284.48 294.849 289.445 299.983 291C299.877 290.353 299.824 289.698 299.823 289.042Z" fill="#17E9A9"/>
<path fill-rule="evenodd" clip-rule="evenodd" d="M301 288.854C301 289.575 301.071 290.294 301.213 291L314 278.214C310.809 277.571 307.499 278.394 304.98 280.456C302.462 282.517 301.001 285.6 301 288.854Z" fill="#2758FF"/>
</g>
</g>
<g clip-path="url(#clip6_0_2578)">
<g filter="url(#filter0_d_0_2578)">
<rect x="625" width="350" height="523" rx="8" fill="white"/>
<rect x="625" width="350" height="523" rx="8" stroke="#EAE9F2"/>
</g>
<path d="M625 10C625 4.47715 629.477 0 635 0H965C970.523 0 975 4.47715 975 10V336H625V10Z" fill="#696871"/>
<rect x="656" y="251" width="137" height="57" rx="8" fill="white"/>
</g>
<g clip-path="url(#clip7_0_2578)">
<rect x="1005.5" y="0.5" width="349" height="522" rx="7.5" fill="white" stroke="#EAE9F2"/>
<path d="M1005 10C1005 4.47715 1009.48 0 1015 0H1345C1350.52 0 1355 4.47715 1355 10V336H1005V10Z" fill="#696871"/>
<rect x="1036" y="251" width="124" height="57" rx="8" fill="white"/>
</g>
<g clip-path="url(#clip8_0_2578)">
<rect x="245.5" y="1266.5" width="349" height="522" rx="7.5" fill="white" stroke="#EAE9F2"/>
<path d="M245 1276C245 1270.48 249.477 1266 255 1266H585C590.523 1266 595 1270.48 595 1276V1602H245V1276Z" fill="#696871"/>
<rect x="276" y="1517" width="124" height="57" rx="8" fill="white"/>
<g clip-path="url(#clip9_0_2578)">
<path fill-rule="evenodd" clip-rule="evenodd" d="M299.823 1555.04C299.82 1551.46 301.391 1548.05 304.121 1545.73C306.851 1543.41 310.463 1542.4 314 1542.98C312.445 1537.85 307.48 1534.53 302.141 1535.05C296.803 1535.58 292.579 1539.8 292.054 1545.14C291.529 1550.48 294.849 1555.44 299.983 1557C299.877 1556.35 299.824 1555.7 299.823 1555.04Z" fill="#17E9A9"/>
<path fill-rule="evenodd" clip-rule="evenodd" d="M301 1554.85C301 1555.57 301.071 1556.29 301.213 1557L314 1544.21C310.809 1543.57 307.499 1544.39 304.98 1546.46C302.462 1548.52 301.001 1551.6 301 1554.85Z" fill="#2758FF"/>
</g>
</g>
<g clip-path="url(#clip10_0_2578)">
<rect x="625" y="1266" width="350" height="523" rx="8" fill="white" stroke="#EAE9F2"/>
<path d="M625 1276C625 1270.48 629.477 1266 635 1266H965C970.523 1266 975 1270.48 975 1276V1602H625V1276Z" fill="#696871"/>
<rect x="656" y="1517" width="137" height="57" rx="8" fill="white"/>
</g>
<g clip-path="url(#clip11_0_2578)">
<rect x="1005.5" y="1266.5" width="349" height="522" rx="7.5" fill="white" stroke="#EAE9F2"/>
<path d="M1005 1276C1005 1270.48 1009.48 1266 1015 1266H1345C1350.52 1266 1355 1270.48 1355 1276V1602H1005V1276Z" fill="#696871"/>
<rect x="1036" y="1517" width="124" height="57" rx="8" fill="white"/>
</g>
<defs>
<filter id="filter0_d_0_2578" x="570.5" y="-2.5" width="459" height="632" filterUnits="userSpaceOnUse" color-interpolation-filters="sRGB">
<feFlood flood-opacity="0" result="BackgroundImageFix"/>
<feColorMatrix in="SourceAlpha" type="matrix" values="0 0 0 0 0 0 0 0 0 0 0 0 0 0 0 0 0 0 127 0" result="hardAlpha"/>
<feOffset dy="52"/>
<feGaussianBlur stdDeviation="27"/>
<feColorMatrix type="matrix" values="0 0 0 0 0.254026 0 0 0 0 0.241871 0 0 0 0 0.395211 0 0 0 0.296766 0"/>
<feBlend mode="normal" in2="BackgroundImageFix" result="effect1_dropShadow_0_2578"/>
<feBlend mode="normal" in="SourceGraphic" in2="effect1_dropShadow_0_2578" result="shape"/>
</filter>
<clipPath id="clip0_0_2578">
<rect width="546" height="215" fill="white" transform="translate(245 807)"/>
</clipPath>
<clipPath id="clip1_0_2578">
<rect width="88" height="32" fill="white" transform="translate(511 819)"/>
</clipPath>
<clipPath id="clip2_0_2578">
<rect width="546" height="215" fill="white" transform="translate(815 807)"/>
</clipPath>
<clipPath id="clip3_0_2578">
<rect width="95" height="22" fill="white" transform="translate(1081 826)"/>
</clipPath>
<clipPath id="clip4_0_2578">
<rect width="350" height="523" fill="white" transform="translate(245)"/>
</clipPath>
<clipPath id="clip5_0_2578">
<rect width="88" height="32" fill="white" transform="translate(292 262)"/>
</clipPath>
<clipPath id="clip6_0_2578">
<rect width="350" height="523" fill="white" transform="translate(625)"/>
</clipPath>
<clipPath id="clip7_0_2578">
<rect width="350" height="523" fill="white" transform="translate(1005)"/>
</clipPath>
<clipPath id="clip8_0_2578">
<rect width="350" height="523" fill="white" transform="translate(245 1266)"/>
</clipPath>
<clipPath id="clip9_0_2578">
<rect width="88" height="32" fill="white" transform="translate(292 1528)"/>
</clipPath>
<clipPath id="clip10_0_2578">
<rect width="350" height="523" fill="white" transform="translate(625 1266)"/>
</clipPath>
<clipPath id="clip11_0_2578">
<rect width="350" height="523" fill="white" transform="translate(1005 1266)"/>
</clipPath>
</defs>
</svg>
