<svg width="1006" height="623" viewBox="0 0 1006 623" fill="none" xmlns="http://www.w3.org/2000/svg">
<g clip-path="url(#clip0_0_2269)">
<path fill-rule="evenodd" clip-rule="evenodd" d="M123.5 232C142.554 232 158 216.554 158 197.5C158 178.446 142.554 163 123.5 163C104.446 163 89 178.446 89 197.5C89 216.554 104.446 232 123.5 232Z" fill="#5454D4" fill-opacity="0.1"/>
<path d="M125 212H109.16C107.967 212 107 211.01 107 209.789V186.211C107 184.99 107.967 184 109.16 184H125V185.474H109.16C108.762 185.474 108.44 185.804 108.44 186.211V209.789C108.44 210.196 108.762 210.526 109.16 210.526H125V212Z" fill="#5454D4"/>
<path fill-rule="evenodd" clip-rule="evenodd" d="M127 184H138.789C140.01 184 141 184.99 141 186.211V209.789C141 211.01 140.01 212 138.789 212H127V184ZM131.421 204.632H136.579C136.986 204.632 137.316 204.302 137.316 203.895C137.316 203.488 136.986 203.158 136.579 203.158H131.421C131.014 203.158 130.684 203.488 130.684 203.895C130.684 204.302 131.014 204.632 131.421 204.632ZM136.579 198.737H131.421C131.014 198.737 130.684 198.407 130.684 198C130.684 197.593 131.014 197.263 131.421 197.263H136.579C136.986 197.263 137.316 197.593 137.316 198C137.316 198.407 136.986 198.737 136.579 198.737ZM131.421 192.842H136.579C136.986 192.842 137.316 192.512 137.316 192.105C137.316 191.698 136.986 191.368 136.579 191.368H131.421C131.014 191.368 130.684 191.698 130.684 192.105C130.684 192.512 131.014 192.842 131.421 192.842Z" fill="#5454D4"/>
<path fill-rule="evenodd" clip-rule="evenodd" d="M503.5 232C522.554 232 538 216.554 538 197.5C538 178.446 522.554 163 503.5 163C484.446 163 469 178.446 469 197.5C469 216.554 484.446 232 503.5 232Z" fill="#F04037" fill-opacity="0.1"/>
<path d="M501.412 200H492.588C492.264 200 492 199.724 492 199.385V184.615C492 184.276 492.264 184 492.588 184H501.412C501.736 184 502 184.276 502 184.615V199.385C502 199.724 501.736 200 501.412 200Z" fill="#F04037"/>
<path d="M501.412 212H492.588C492.264 212 492 211.712 492 211.357V203.643C492 203.288 492.264 203 492.588 203H501.412C501.736 203 502 203.288 502 203.643V211.357C502 211.712 501.736 212 501.412 212Z" fill="#F04037"/>
<path d="M515.412 193H506.588C506.264 193 506 192.712 506 192.357V184.643C506 184.288 506.264 184 506.588 184H515.412C515.736 184 516 184.288 516 184.643V192.357C516 192.712 515.736 193 515.412 193Z" fill="#F04037"/>
<path d="M515.412 212H506.588C506.264 212 506 211.724 506 211.385V196.615C506 196.276 506.264 196 506.588 196H515.412C515.736 196 516 196.276 516 196.615V211.385C516 211.724 515.736 212 515.412 212Z" fill="#F04037"/>
<path fill-rule="evenodd" clip-rule="evenodd" d="M883.5 232C902.554 232 918 216.554 918 197.5C918 178.446 902.554 163 883.5 163C864.446 163 849 178.446 849 197.5C849 216.554 864.446 232 883.5 232Z" fill="#FEDC5A" fill-opacity="0.1"/>
<path d="M883 189.176C879.501 188.448 875.772 189.999 873.123 193.428C872.943 193.661 872.962 193.996 873.169 194.206L875.917 197C877.759 193.951 880.164 191.295 883 189.176Z" fill="#FEDC5A"/>
<path d="M886 207.087L888.803 209.832C889.013 210.037 889.346 210.057 889.579 209.877C893.021 207.229 894.571 203.495 893.81 200C891.694 202.83 889.042 205.236 886 207.087V207.087Z" fill="#FEDC5A"/>
<path fill-rule="evenodd" clip-rule="evenodd" d="M896.39 185.001C896.555 184.992 896.716 185.055 896.83 185.175C896.946 185.29 897.007 185.449 896.999 185.613C896.1 201.427 882.295 206.908 882.154 206.962C882.088 206.987 882.018 207 881.947 207C881.794 207 881.646 206.939 881.538 206.83L875.17 200.462C875.009 200.301 874.957 200.061 875.037 199.849C875.09 199.708 880.503 185.831 896.39 185.001ZM883.105 196.579C883.105 197.858 884.142 198.895 885.421 198.895C886.7 198.895 887.736 197.858 887.736 196.579C887.736 195.3 886.7 194.264 885.421 194.264C884.142 194.264 883.105 195.3 883.105 196.579Z" fill="#FEDC5A"/>
<path d="M876.92 205.945C875.477 204.685 873.141 204.685 871.698 205.945C870.371 207.106 870.036 210.986 870.001 211.425C869.99 211.574 870.05 211.721 870.166 211.83C870.283 211.939 870.446 212 870.617 212H870.658C871.159 211.97 875.593 211.677 876.92 210.516C878.36 209.253 878.36 207.208 876.92 205.945Z" fill="#FEDC5A"/>
<path fill-rule="evenodd" clip-rule="evenodd" d="M123.5 504C142.554 504 158 488.554 158 469.5C158 450.446 142.554 435 123.5 435C104.446 435 89 450.446 89 469.5C89 488.554 104.446 504 123.5 504Z" fill="#F04037" fill-opacity="0.1"/>
<path fill-rule="evenodd" clip-rule="evenodd" d="M135.739 456H112.261C110.46 456 109 457.492 109 459.333V474C109 474.884 109.344 475.732 109.955 476.357C110.567 476.982 111.396 477.333 112.261 477.333H118.47L123.491 483.75C123.615 483.908 123.802 484 124.001 484C124.199 484 124.386 483.908 124.51 483.75L129.53 477.333H135.739C137.54 477.333 139 475.841 139 474V459.333C139 457.492 137.54 456 135.739 456ZM125.375 470H116.625C116.28 470 116 469.776 116 469.5C116 469.224 116.28 469 116.625 469H125.375C125.72 469 126 469.224 126 469.5C126 469.776 125.72 470 125.375 470ZM116.654 464H132.346C132.707 464 133 463.776 133 463.5C133 463.224 132.707 463 132.346 463H116.654C116.293 463 116 463.224 116 463.5C116 463.776 116.293 464 116.654 464Z" fill="#F04037"/>
<path fill-rule="evenodd" clip-rule="evenodd" d="M503.5 504C522.554 504 538 488.554 538 469.5C538 450.446 522.554 435 503.5 435C484.446 435 469 450.446 469 469.5C469 488.554 484.446 504 503.5 504Z" fill="#FEDC5A" fill-opacity="0.1"/>
<path d="M512.667 455H495.333C493.493 455.002 492.002 456.461 492 458.261V484.348C492 484.582 492.128 484.798 492.336 484.914C492.543 485.03 492.799 485.029 493.005 484.91L504 478.583L514.995 484.909C515.201 485.027 515.456 485.029 515.664 484.913C515.871 484.797 516 484.582 516 484.348V458.261C515.998 456.461 514.507 455.002 512.667 455Z" fill="#FEDC5A"/>
<path fill-rule="evenodd" clip-rule="evenodd" d="M883.5 504C902.554 504 918 488.554 918 469.5C918 450.446 902.554 435 883.5 435C864.446 435 849 450.446 849 469.5C849 488.554 864.446 504 883.5 504Z" fill="#5454D4" fill-opacity="0.1"/>
<path d="M894.348 464.74C891.929 464.74 887.898 467.656 883.631 470.743C879.885 473.454 875.637 476.527 873.652 476.527C870.8 476.527 868.478 474.213 868.478 471.37C868.478 468.528 870.8 466.214 873.652 466.214C874.152 466.214 874.828 466.403 875.639 466.75L873.779 470.139C873.64 470.391 873.663 470.701 873.834 470.931C873.974 471.121 874.196 471.229 874.428 471.229C874.477 471.229 874.529 471.224 874.579 471.213L881.194 469.835C881.404 469.791 881.585 469.659 881.689 469.471C881.794 469.283 881.811 469.06 881.736 468.86L879.376 462.482C879.275 462.211 879.026 462.023 878.737 462.002C878.453 461.979 878.173 462.131 878.034 462.384L876.349 465.457C875.279 464.988 874.372 464.74 873.652 464.74C869.984 464.74 867 467.714 867 471.37C867 475.026 869.984 478 873.652 478C876.117 478 880.189 475.054 884.5 471.936C888.206 469.254 892.409 466.214 894.348 466.214C897.2 466.214 899.522 468.528 899.522 471.37C899.522 474.213 897.2 476.527 894.348 476.527C893.177 476.527 891.05 475.524 888.358 473.703C888.021 473.473 887.561 473.563 887.331 473.899C887.101 474.236 887.19 474.694 887.528 474.922C890.546 476.964 892.841 478 894.348 478C898.016 478 901 475.026 901 471.37C901 467.714 898.016 464.74 894.348 464.74Z" fill="#5454D4"/>
</g>
<defs>
<clipPath id="clip0_0_2269">
<rect width="1006" height="623" fill="white"/>
</clipPath>
</defs>
</svg>
