<svg width="1600" height="793" viewBox="0 0 1600 793" fill="none" xmlns="http://www.w3.org/2000/svg">
<rect width="1600" height="793" fill="#696871"/>
<rect opacity="0.1" width="1600" height="793" fill="#19191B"/>
<path fill-rule="evenodd" clip-rule="evenodd" d="M800 459C834.242 459 862 431.242 862 397C862 362.758 834.242 335 800 335C765.758 335 738 362.758 738 397C738 431.242 765.758 459 800 459Z" fill="white"/>
<path d="M809.74 396.565L790.766 386.065C790.607 385.977 790.413 385.978 790.255 386.068C790.097 386.158 790 386.322 790 386.5V407.5C790 407.678 790.097 407.842 790.255 407.932C790.413 408.022 790.607 408.023 790.766 407.935L809.74 397.435C809.901 397.346 810 397.18 810 397C810 396.82 809.901 396.654 809.74 396.565Z" fill="#5454D4"/>
</svg>
