<svg width="553" height="553" viewBox="0 0 553 553" fill="none" xmlns="http://www.w3.org/2000/svg">
<g filter="url(#filter0_d_0_693)">
<path fill-rule="evenodd" clip-rule="evenodd" d="M276.5 457C399.383 457 499 357.383 499 234.5C499 111.617 399.383 12 276.5 12C153.617 12 54 111.617 54 234.5C54 357.383 153.617 457 276.5 457Z" fill="#696871"/>
</g>
<mask id="mask0_0_693" style="mask-type:alpha" maskUnits="userSpaceOnUse" x="54" y="12" width="445" height="445">
<path fill-rule="evenodd" clip-rule="evenodd" d="M276.5 457C399.383 457 499 357.383 499 234.5C499 111.617 399.383 12 276.5 12C153.617 12 54 111.617 54 234.5C54 357.383 153.617 457 276.5 457Z" fill="white"/>
</mask>
<g mask="url(#mask0_0_693)">
</g>
<defs>
<filter id="filter0_d_0_693" x="0" y="0" width="553" height="553" filterUnits="userSpaceOnUse" color-interpolation-filters="sRGB">
<feFlood flood-opacity="0" result="BackgroundImageFix"/>
<feColorMatrix in="SourceAlpha" type="matrix" values="0 0 0 0 0 0 0 0 0 0 0 0 0 0 0 0 0 0 127 0" result="hardAlpha"/>
<feOffset dy="42"/>
<feGaussianBlur stdDeviation="27"/>
<feColorMatrix type="matrix" values="0 0 0 0 0 0 0 0 0 0 0 0 0 0 0 0 0 0 0.311517 0"/>
<feBlend mode="normal" in2="BackgroundImageFix" result="effect1_dropShadow_0_693"/>
<feBlend mode="normal" in="SourceGraphic" in2="effect1_dropShadow_0_693" result="shape"/>
</filter>
</defs>
</svg>
